<svg width="25" height="25" viewBox="0 0 25 25" fill="none" xmlns="http://www.w3.org/2000/svg">
<path d="M17.5 2.18555H7.5C4.73858 2.18555 2.5 4.42412 2.5 7.18555V17.1855C2.5 19.947 4.73858 22.1855 7.5 22.1855H17.5C20.2614 22.1855 22.5 19.947 22.5 17.1855V7.18555C22.5 4.42412 20.2614 2.18555 17.5 2.18555Z" stroke="#00A88E" stroke-width="2" stroke-linecap="round" stroke-linejoin="round"/>
<path d="M16.5002 11.5554C16.6236 12.3876 16.4815 13.2376 16.094 13.9844C15.7065 14.7312 15.0933 15.3368 14.3418 15.715C13.5903 16.0933 12.7386 16.225 11.908 16.0913C11.0773 15.9576 10.31 15.5654 9.71503 14.9705C9.12011 14.3756 8.72793 13.6082 8.59426 12.7776C8.4606 11.9469 8.59226 11.0953 8.97052 10.3437C9.34878 9.59221 9.95438 8.9791 10.7012 8.5916C11.448 8.2041 12.2979 8.06195 13.1302 8.18536C13.9791 8.31124 14.765 8.70682 15.3719 9.31367C15.9787 9.92051 16.3743 10.7064 16.5002 11.5554Z" stroke="#00A88E" stroke-width="2" stroke-linecap="round" stroke-linejoin="round"/>
<path d="M18 6.68555H18.01" stroke="#00A88E" stroke-width="2" stroke-linecap="round" stroke-linejoin="round"/>
</svg>
