<svg width="24" height="24" viewBox="0 0 24 24" fill="none" xmlns="http://www.w3.org/2000/svg">
<path fill-rule="evenodd" clip-rule="evenodd" d="M17.4915 7.51572C17.4915 8.07248 17.0401 8.52372 16.4835 8.52372C15.9269 8.52372 15.4755 8.07248 15.4755 7.51572C15.4755 6.95895 15.9269 6.50772 16.4835 6.50772C17.0403 6.50772 17.4915 6.95895 17.4915 7.51572ZM11.9996 14.7996C10.4532 14.7996 9.19965 13.546 9.19965 11.9996C9.19965 10.4532 10.4532 9.19965 11.9996 9.19965C13.546 9.19965 14.7996 10.4532 14.7996 11.9996C14.7996 13.546 13.546 14.7996 11.9996 14.7996ZM11.9996 7.68608C9.61729 7.68608 7.68608 9.61729 7.68608 11.9996C7.68608 14.3819 9.61729 16.3131 11.9996 16.3131C14.3819 16.3131 16.3131 14.3819 16.3131 11.9996C16.3131 9.61729 14.3819 7.68608 11.9996 7.68608ZM11.9996 5.11318C14.2425 5.11318 14.5082 5.12172 15.3939 5.16214C16.2129 5.19955 16.6577 5.33631 16.9536 5.45142C17.3457 5.6038 17.6255 5.78584 17.9195 6.07984C18.2135 6.37371 18.3956 6.65353 18.5479 7.04571C18.6629 7.34168 18.7998 7.78648 18.8372 8.60548C18.8776 9.49129 18.8862 9.75694 18.8862 11.9999C18.8862 14.2428 18.8776 14.5085 18.8372 15.3941C18.7998 16.2131 18.663 16.6579 18.5479 16.9539C18.3956 17.3459 18.2135 17.6258 17.9195 17.9198C17.6256 18.2138 17.3458 18.3958 16.9536 18.5482C16.6577 18.6632 16.2129 18.8001 15.3939 18.8375C14.5082 18.8779 14.2425 18.8864 11.9996 18.8864C9.75655 18.8864 9.4909 18.8779 8.60522 18.8375C7.78622 18.8001 7.34142 18.6633 7.04545 18.5482C6.6534 18.3958 6.37358 18.2138 6.07958 17.9198C5.78571 17.6259 5.60353 17.3461 5.45115 16.9539C5.33618 16.6579 5.19928 16.2131 5.16188 15.3941C5.12145 14.5083 5.11292 14.2427 5.11292 11.9999C5.11292 9.75694 5.12145 9.49129 5.16188 8.60548C5.19928 7.78648 5.33605 7.34168 5.45115 7.04571C5.60353 6.65367 5.78558 6.37384 6.07958 6.07984C6.37345 5.78584 6.65327 5.6038 7.04545 5.45142C7.34142 5.33644 7.78622 5.19955 8.60522 5.16214C9.49103 5.12172 9.75668 5.11318 11.9996 5.11318ZM11.9996 3.59961C9.71835 3.59961 9.43223 3.60932 8.53632 3.65014C7.64224 3.69096 7.03153 3.83297 6.49735 4.04061C5.94492 4.2552 5.47648 4.54251 5.0095 5.0095C4.54251 5.47648 4.2552 5.94492 4.04061 6.49735C3.83297 7.03167 3.69096 7.64224 3.65014 8.53632C3.60932 9.43223 3.59961 9.71835 3.59961 11.9996C3.59961 14.2809 3.60932 14.567 3.65014 15.4629C3.69096 16.357 3.83297 16.9676 4.04061 17.5019C4.2552 18.0543 4.54251 18.5227 5.0095 18.9897C5.47648 19.4567 5.94492 19.7439 6.49735 19.9586C7.03167 20.1662 7.64224 20.3083 8.53632 20.3491C9.43223 20.3899 9.71835 20.3996 11.9996 20.3996C14.2809 20.3996 14.567 20.3899 15.4629 20.3491C16.357 20.3083 16.9676 20.1662 17.5019 19.9586C18.0543 19.7439 18.5227 19.4567 18.9897 18.9897C19.4567 18.5227 19.7439 18.0543 19.9586 17.5019C20.1662 16.9676 20.3083 16.357 20.3491 15.4629C20.3899 14.567 20.3996 14.2809 20.3996 11.9996C20.3996 9.71835 20.3899 9.43223 20.3491 8.53632C20.3083 7.64224 20.1662 7.03167 19.9586 6.49735C19.7439 5.94492 19.4567 5.47648 18.9897 5.0095C18.5227 4.54251 18.0543 4.25533 17.5019 4.04061C16.9676 3.83297 16.357 3.69096 15.4629 3.65014C14.567 3.60932 14.2809 3.59961 11.9996 3.59961Z" fill="#00A88E"/>
</svg>
