<svg width="24" height="24" viewBox="0 0 24 24" fill="none" xmlns="http://www.w3.org/2000/svg">
<path d="M5.05239 9.5809H8.28785V19.1987H5.05239V9.5809ZM6.67613 4.7998C7.04724 4.7998 7.41001 4.90153 7.71857 5.09213C8.02713 5.28272 8.26762 5.55362 8.40964 5.87056C8.55165 6.18751 8.58881 6.53627 8.51641 6.87273C8.44401 7.2092 8.26531 7.51827 8.0029 7.76085C7.74049 8.00343 7.40616 8.16862 7.04219 8.23555C6.67822 8.30248 6.30095 8.26813 5.95809 8.13685C5.61524 8.00556 5.3222 7.78324 5.11602 7.498C4.90985 7.21276 4.7998 6.8774 4.7998 6.53434C4.80044 6.07449 4.99833 5.63365 5.35007 5.30849C5.70181 4.98333 6.1787 4.80039 6.67613 4.7998Z" fill="#00A88E"/>
<path d="M10.3205 9.58082H13.4177V10.8995H13.4598C13.8928 10.1434 14.9452 9.34844 16.5208 9.34844C19.7924 9.34844 20.3998 11.3387 20.3998 13.9294V19.1997H17.1703V14.5243C17.1703 13.4068 17.1523 11.9725 15.4924 11.9725C13.8086 11.9725 13.556 13.19 13.556 14.4409V19.1997H10.3265V9.58193L10.3205 9.58082Z" fill="#00A88E"/>
</svg>
