<svg width="24" height="24" viewBox="0 0 24 24" fill="none" xmlns="http://www.w3.org/2000/svg">
<path d="M8.88157 19.2C15.2231 19.2 18.6917 14.1204 18.6917 9.71849C18.6917 9.57583 18.6917 9.43318 18.6811 9.28543C19.3556 8.81295 19.9375 8.22809 20.3996 7.55827C19.7703 7.82937 19.102 8.00632 18.4176 8.08304C19.1387 7.66705 19.6784 7.0114 19.9357 6.23871C19.2592 6.62651 18.5195 6.90044 17.7481 7.04879C17.2281 6.51496 16.5405 6.16165 15.7918 6.04355C15.0431 5.92545 14.275 6.04913 13.6064 6.39545C12.9377 6.74178 12.4058 7.29144 12.093 7.95938C11.7801 8.62732 11.7038 9.3763 11.8757 10.0904C10.5051 10.0242 9.16418 9.6802 7.94001 9.08071C6.71583 8.48123 5.63575 7.63966 4.76986 6.61063C4.32857 7.3438 4.19305 8.21198 4.39088 9.03835C4.58872 9.86472 5.10504 10.5871 5.83469 11.0584C5.28558 11.0433 4.74842 10.9 4.26908 10.6407V10.6814C4.27026 11.4507 4.54636 12.1959 5.05066 12.791C5.55497 13.3861 6.25651 13.7945 7.03657 13.9472C6.52943 14.0803 5.9975 14.0995 5.4815 14.0033C5.70207 14.6651 6.13105 15.2438 6.70851 15.6585C7.28597 16.0732 7.98305 16.3032 8.70234 16.3163C7.48146 17.243 5.97429 17.7471 4.42195 17.748C4.14715 17.7479 3.87259 17.7326 3.59961 17.7021C5.17491 18.6813 7.00862 19.2013 8.88157 19.2Z" fill="#00A88E"/>
</svg>
