<svg width="25" height="25" viewBox="0 0 25 25" fill="none" xmlns="http://www.w3.org/2000/svg">
<path d="M23.5 3.18535C22.5424 3.86083 21.4821 4.37746 20.36 4.71535C19.7577 4.02286 18.9573 3.53204 18.067 3.30927C17.1767 3.08651 16.2395 3.14254 15.3821 3.4698C14.5247 3.79706 13.7884 4.37975 13.273 5.13907C12.7575 5.89838 12.4877 6.79768 12.5 7.71535V8.71535C10.7426 8.76092 9.00127 8.37116 7.43101 7.58079C5.86074 6.79043 4.51032 5.62398 3.5 4.18535C3.5 4.18535 -0.5 13.1853 8.5 17.1853C6.44053 18.5833 3.98716 19.2843 1.5 19.1853C10.5 24.1853 21.5 19.1853 21.5 7.68535C21.4991 7.4068 21.4723 7.12894 21.42 6.85535C22.4406 5.84884 23.1608 4.57806 23.5 3.18535Z" fill="#00A88E"/>
</svg>
