<svg width="24" height="24" viewBox="0 0 24 24" fill="none" xmlns="http://www.w3.org/2000/svg">
<path d="M20.8222 8.58854C20.8222 8.58854 20.6461 7.41015 20.1069 6.89558C19.4224 6.21604 18.6554 6.2129 18.304 6.17283C15.7849 6 12.0071 6 12.0071 6H11.9962C11.9962 6 8.21846 6 5.69937 6.17283C5.34714 6.21211 4.58089 6.21525 3.89562 6.89558C3.35641 7.41329 3.18029 8.58854 3.18029 8.58854C3.06815 9.50534 3.00797 10.4271 3 11.3499V12.6446C3.00794 13.5674 3.06812 14.4892 3.18029 15.406C3.18029 15.406 3.35558 16.5844 3.89562 17.0989C4.58089 17.7785 5.48152 17.7573 5.8805 17.828C7.32033 17.9591 12.0004 18 12.0004 18C12.0004 18 15.7824 17.9945 18.3015 17.8217C18.6529 17.7816 19.4199 17.7785 20.1044 17.0989C20.6436 16.5812 20.8197 15.406 20.8197 15.406C20.9319 14.4892 20.9921 13.5674 21 12.6446V11.3499C20.9929 10.4271 20.9335 9.50538 20.8222 8.58854ZM10.1441 14.2134V9.42128L15.007 11.826L10.1441 14.2134Z" fill="#00A88E"/>
</svg>
