<svg width="37" height="33" viewBox="0 0 37 33" fill="none" xmlns="http://www.w3.org/2000/svg">
<path fill-rule="evenodd" clip-rule="evenodd" d="M0.375 0.0229492H6.73864V2.29568H2.64773V30.023H6.73864V32.2957H0.375V0.0229492Z" fill="#00A88E"/>
<path fill-rule="evenodd" clip-rule="evenodd" d="M36.7104 32.2957L30.3468 32.2957L30.3468 30.0229L34.4377 30.0229L34.4377 2.29565L30.3468 2.29565L30.3468 0.0229258L36.7105 0.0229263L36.7104 32.2957Z" fill="#00A88E"/>
<g clip-path="url(#clip0)">
<path fill-rule="evenodd" clip-rule="evenodd" d="M18.5106 10.1868C15.5644 10.1868 12.7156 13.2924 12.7156 17.6505C12.7156 22.0159 15.5062 25.1141 18.5106 25.1141C21.515 25.1141 24.3056 22.0159 24.3056 17.6505C24.3056 13.2923 21.4568 10.1868 18.5106 10.1868ZM10.4429 17.6505C10.4429 12.51 13.8836 7.91406 18.5106 7.91406C23.1376 7.91406 26.5783 12.51 26.5783 17.6505C26.5783 22.7835 23.2077 27.3869 18.5106 27.3869C13.8135 27.3869 10.4429 22.7835 10.4429 17.6505Z" fill="#1D1D1B"/>
<path fill-rule="evenodd" clip-rule="evenodd" d="M28.9076 20.5198H25.4419V18.2471H28.9076V20.5198Z" fill="#1D1D1B"/>
<path fill-rule="evenodd" clip-rule="evenodd" d="M26.4984 26.3292L23.0327 23.7621L24.3855 21.9358L27.8512 24.503L26.4984 26.3292Z" fill="#1D1D1B"/>
<path fill-rule="evenodd" clip-rule="evenodd" d="M28.5172 14.367L25.0516 16.0999L24.0352 14.0671L27.5008 12.3342L28.5172 14.367Z" fill="#1D1D1B"/>
<path fill-rule="evenodd" clip-rule="evenodd" d="M19.6468 14.2493V26.315H17.374V14.2493H19.6468Z" fill="#1D1D1B"/>
<path fill-rule="evenodd" clip-rule="evenodd" d="M11.8316 13.451C11.8312 13.4508 11.8309 13.4505 12.4778 12.5162C13.1246 11.5819 13.1243 11.5817 13.124 11.5815L13.1226 11.5806L13.1335 11.5878C13.1457 11.5959 13.1671 11.6098 13.1972 11.6288C13.2575 11.6667 13.3526 11.7245 13.4797 11.7957C13.7342 11.9384 14.1145 12.1335 14.598 12.3298C15.5686 12.7238 16.9295 13.1127 18.5106 13.1127C20.0918 13.1127 21.4527 12.7238 22.4233 12.3298C22.9067 12.1335 23.287 11.9384 23.5416 11.7957C23.6687 11.7245 23.7638 11.6667 23.824 11.6288C23.8541 11.6098 23.8755 11.5959 23.8877 11.5878L23.8992 11.5802L23.8977 11.5812C23.8975 11.5814 23.8966 11.5819 24.5435 12.5162C25.1903 13.4505 25.19 13.4508 25.1897 13.451L25.1874 13.4525L25.1836 13.4552L25.1732 13.4622L25.1413 13.4836C25.1151 13.5009 25.0793 13.5242 25.034 13.5526C24.9436 13.6095 24.8156 13.687 24.6529 13.7782C24.3278 13.9605 23.8618 14.1986 23.2782 14.4355C22.1149 14.9079 20.4593 15.3854 18.5106 15.3854C16.5619 15.3854 14.9064 14.9079 13.743 14.4355C13.1595 14.1986 12.6934 13.9605 12.3684 13.7782C12.2056 13.687 12.0776 13.6095 11.9872 13.5526C11.942 13.5242 11.9061 13.5009 11.88 13.4836L11.848 13.4622L11.8376 13.4552L11.8338 13.4525L11.8316 13.451ZM23.8992 11.5802C23.8999 11.5797 23.8996 11.5799 23.8992 11.5802V11.5802Z" fill="#1D1D1B"/>
<path fill-rule="evenodd" clip-rule="evenodd" d="M8.17773 18.2471H11.6434V20.5198H8.17773V18.2471Z" fill="#1D1D1B"/>
<path fill-rule="evenodd" clip-rule="evenodd" d="M9.23438 24.503L12.7001 21.9358L14.0528 23.7621L10.5872 26.3292L9.23438 24.503Z" fill="#1D1D1B"/>
<path fill-rule="evenodd" clip-rule="evenodd" d="M9.5203 12.3342L12.986 14.0671L11.9696 16.0999L8.50391 14.367L9.5203 12.3342Z" fill="#1D1D1B"/>
<path d="M25.4424 8.56175C25.4424 6.82891 24.0304 5.41696 22.2976 5.35278C22.7994 6.07743 24.0113 8.20479 21.8522 9.28434L24.223 10.9364C24.9931 10.3588 25.4424 9.52444 25.4424 8.56175Z" fill="#1D1D1B"/>
</g>
<path d="M11.5796 8.57591C11.5796 6.84307 12.9915 5.43112 14.7244 5.36694C14.2226 6.09159 13.2726 8.09111 15.2044 9.28429L12.799 10.9506C12.0288 10.3729 11.5796 9.5386 11.5796 8.57591Z" fill="#1D1D1B"/>
<defs>
<clipPath id="clip0">
<rect width="23.6364" height="23.6364" fill="white" transform="translate(6.68164 4.34106)"/>
</clipPath>
</defs>
</svg>
