<svg width="37" height="36" viewBox="0 0 37 36" fill="none" xmlns="http://www.w3.org/2000/svg">
<path fill-rule="evenodd" clip-rule="evenodd" d="M8.75977 15.4001C8.75977 11.4829 12.0309 8.28528 16.0381 8.28528C20.0464 8.28528 23.3164 11.4841 23.3164 15.4093C23.3164 15.7378 23.2842 16.0579 23.2431 16.3535L29.4162 22.3879V28.4869H23.2504V26.2474H20.9594V24.0079H18.6684V22.0345C17.8585 22.3353 16.9521 22.5149 16.0381 22.5149C12.0309 22.5149 8.75977 19.3172 8.75977 15.4001ZM25.6073 26.1828H27.0592V23.3422L20.7266 17.1519L20.824 16.5692C20.9026 16.0982 20.9594 15.7506 20.9594 15.4093C20.9594 12.7542 18.7423 10.5893 16.0381 10.5893C13.3326 10.5893 11.1167 12.7554 11.1167 15.4001C11.1167 18.0447 13.3326 20.2108 16.0381 20.2108C16.8943 20.2108 17.7652 19.9701 18.4395 19.6072L18.7049 19.4643H21.0254V21.7038H23.3164V23.9433H25.6073V26.1828Z" fill="#00A88E"/>
<path d="M12.9941 13.9072C12.9941 14.7274 13.6729 15.4002 14.5215 15.4002C15.3605 15.4002 16.0488 14.7366 16.0488 13.9072C16.0488 13.087 15.37 12.4142 14.5215 12.4142C13.6729 12.4142 12.9941 13.087 12.9941 13.9072Z" fill="#00A88E"/>
<path fill-rule="evenodd" clip-rule="evenodd" d="M18.5425 2.56976C9.81262 2.56976 2.73196 9.49134 2.73196 18.0251C2.73196 26.5588 9.81262 33.4804 18.5425 33.4804C27.2723 33.4804 34.353 26.5588 34.353 18.0251C34.353 9.49134 27.2723 2.56976 18.5425 2.56976ZM0.375 18.0251C0.375 8.21887 8.51091 0.265747 18.5425 0.265747C28.5741 0.265747 36.71 8.21887 36.71 18.0251C36.71 27.8313 28.5741 35.7844 18.5425 35.7844C8.51091 35.7844 0.375 27.8313 0.375 18.0251Z" fill="#1D1D1B"/>
</svg>
