<svg width="22" height="34" viewBox="0 0 22 34" fill="none" xmlns="http://www.w3.org/2000/svg">
<path fill-rule="evenodd" clip-rule="evenodd" d="M10.5425 6.32145C6.32017 6.32145 2.88951 9.86842 2.88951 14.2339C2.88951 18.5994 6.32017 22.1463 10.5425 22.1463C14.7648 22.1463 18.1955 18.5994 18.1955 14.2339C18.1955 9.86015 14.7655 6.32145 10.5425 6.32145ZM0.712891 14.2339C0.712891 8.62555 5.11805 4.07104 10.5425 4.07104C15.9662 4.07104 20.3721 8.61582 20.3721 14.2339C20.3721 19.8422 15.9669 24.3967 10.5425 24.3967C5.11805 24.3967 0.712891 19.8422 0.712891 14.2339Z" fill="#1D1D1B"/>
<path fill-rule="evenodd" clip-rule="evenodd" d="M10.543 4.09817C12.6583 4.09817 14.3738 2.32453 14.3738 0.137451H16.5504C16.5504 3.56739 13.8604 6.34858 10.543 6.34858V4.09817Z" fill="#1D1D1B"/>
<path fill-rule="evenodd" clip-rule="evenodd" d="M10.543 24.5319C5.94626 24.5319 2.21959 28.3849 2.21959 33.1375H0.0429688C0.0429688 27.1421 4.74415 22.2815 10.543 22.2815C16.3418 22.2815 21.043 27.1421 21.043 33.1375H18.8664C18.8664 28.3849 15.1397 24.5319 10.543 24.5319Z" fill="#1D1D1B"/>
<path d="M14.043 15.8723C14.043 17.8707 12.4758 19.491 10.543 19.491C8.61013 19.491 7.04297 17.8707 7.04297 15.8723" fill="#00A88E"/>
<path d="M7.06027 13.4508C7.8152 13.4508 8.42719 12.818 8.42719 12.0375C8.42719 11.257 7.8152 10.6243 7.06027 10.6243C6.30535 10.6243 5.69336 11.257 5.69336 12.0375C5.69336 12.818 6.30535 13.4508 7.06027 13.4508Z" fill="#00A88E"/>
<path d="M14.0173 13.4508C14.7722 13.4508 15.3842 12.818 15.3842 12.0375C15.3842 11.257 14.7722 10.6243 14.0173 10.6243C13.2624 10.6243 12.6504 11.257 12.6504 12.0375C12.6504 12.818 13.2624 13.4508 14.0173 13.4508Z" fill="#00A88E"/>
</svg>
