<svg width="31" height="26" viewBox="0 0 31 26" fill="none" xmlns="http://www.w3.org/2000/svg">
<path fill-rule="evenodd" clip-rule="evenodd" d="M29.6194 1.90633L15.4509 11.6116L1.3833 1.90457L2.39441 0.346241L15.4546 9.35814L28.6134 0.344482L29.6194 1.90633Z" fill="#1D1D1B"/>
<path fill-rule="evenodd" clip-rule="evenodd" d="M30.0252 0.187988H0.979492V20.7819H18.1877C19.2277 20.7819 18.9777 20.448 18.9777 20.2818C18.9777 19.8093 19.1648 19.3535 19.2504 18.9069H2.79767V2.06299H28.207V19.3912C28.8886 19.7594 29.5027 18.6983 30.0252 19.2711V0.187988Z" fill="#1D1D1B"/>
<path d="M24.1149 13.1116C20.8164 13.1116 18.2051 15.9241 18.2051 19.3135C18.2051 22.775 20.8851 25.5154 24.1149 25.5154C27.4134 25.5154 30.0247 22.7029 30.0247 19.3135C30.0247 15.9241 27.4134 13.1116 24.1149 13.1116ZM24.8708 23.2798H23.4277V21.8375H24.8708V23.2798ZM24.9395 20.6116H23.4277V15.9241H24.9395V20.6116Z" fill="#00A88E"/>
</svg>
