<svg width="37" height="38" viewBox="0 0 37 38" fill="none" xmlns="http://www.w3.org/2000/svg">
<path fill-rule="evenodd" clip-rule="evenodd" d="M18.4955 5.56048C11.3898 5.56048 5.62943 11.4613 5.62943 18.7403C5.62943 26.0194 11.3898 31.9202 18.4955 31.9202C25.6012 31.9202 31.3616 26.0194 31.3616 18.7403C31.3616 11.4613 25.6012 5.56048 18.4955 5.56048ZM3.36133 18.7403C3.36133 10.1781 10.1371 3.23706 18.4955 3.23706C26.8539 3.23706 33.6297 10.1781 33.6297 18.7403C33.6297 27.3026 26.8539 34.2436 18.4955 34.2436C10.1371 34.2436 3.36133 27.3026 3.36133 18.7403Z" fill="#1D1D1B"/>
<path fill-rule="evenodd" clip-rule="evenodd" d="M19.6299 0.177734V7.18607H17.3618V0.177734H19.6299Z" fill="#1D1D1B"/>
<path fill-rule="evenodd" clip-rule="evenodd" d="M29.8691 17.5786H36.7106V19.902H29.8691V17.5786Z" fill="#1D1D1B"/>
<path fill-rule="evenodd" clip-rule="evenodd" d="M0.375 17.5786H7.21647V19.902H0.375V17.5786Z" fill="#1D1D1B"/>
<path fill-rule="evenodd" clip-rule="evenodd" d="M19.6299 30.3909V37.3992H17.3618V30.3909H19.6299Z" fill="#1D1D1B"/>
<path fill-rule="evenodd" clip-rule="evenodd" d="M14.2819 14.8205C14.2819 12.4579 16.1897 10.5037 18.496 10.5037C20.8023 10.5037 22.7101 12.4579 22.7101 14.8205V15.7622H24.2967V25.4477H12.7886V15.7622H14.2819V14.8205ZM15.0567 18.0857V23.1243H22.0286V18.0857H15.0567ZM20.442 15.7622H16.55V14.8205C16.55 13.7411 17.4423 12.8271 18.496 12.8271C19.5497 12.8271 20.442 13.7411 20.442 14.8205V15.7622Z" fill="#00A88E"/>
</svg>
