<svg width="35" height="30" viewBox="0 0 35 30" fill="none" xmlns="http://www.w3.org/2000/svg">
<path d="M17.4843 29.6027C19.0107 29.6027 20.248 28.2677 20.248 26.6209C20.248 24.974 19.0107 23.639 17.4843 23.639C15.958 23.639 14.7207 24.974 14.7207 26.6209C14.7207 28.2677 15.958 29.6027 17.4843 29.6027Z" fill="#00A88E"/>
<path fill-rule="evenodd" clip-rule="evenodd" d="M34.7439 8.27232C30.2975 3.56648 24.2051 0.664551 17.4846 0.664551C10.7637 0.664551 4.67115 3.56673 0.224609 8.27294L1.71003 9.96407C5.76936 5.65359 11.3391 2.9941 17.4846 2.9941C23.6246 2.9941 29.19 5.64892 33.2484 9.95271L34.7439 8.27232ZM29.6891 13.9519C26.5324 10.6499 22.2285 8.61731 17.4845 8.61731C12.723 8.61731 8.40481 10.6649 5.24498 13.9886L6.73033 15.6796C9.50301 12.7517 13.2984 10.9469 17.4845 10.9469C21.648 10.9469 25.425 12.7323 28.1937 15.6322L29.6891 13.9519ZM24.745 19.5072C22.8785 17.5195 20.3143 16.2925 17.4846 16.2925C14.6204 16.2925 12.0283 17.5495 10.1564 19.5801L11.6424 21.2719C13.1266 19.6367 15.1958 18.6221 17.4846 18.6221C19.7339 18.6221 21.771 19.602 23.2493 21.1877L24.745 19.5072Z" fill="#1D1D1B"/>
</svg>
