<svg width="37" height="36" viewBox="0 0 37 36" fill="none" xmlns="http://www.w3.org/2000/svg">
<path fill-rule="evenodd" clip-rule="evenodd" d="M20.967 0.818226L20.6341 0.475342H18.3595L18.8834 2.02232C20.3777 6.4353 19.6493 9.19711 18.7018 10.2003C18.2706 10.6567 17.7935 10.7801 17.2945 10.64C16.7412 10.4846 15.9861 9.94895 15.2517 8.69596L14.4347 7.30194L13.4113 8.5444C10.9142 11.576 9.75726 15.0913 10.5019 18.0121H12.8986C12.2046 16.3079 12.5273 13.8437 14.2604 11.2386C14.9849 12.0689 15.8082 12.6379 16.6949 12.8869C18.0539 13.2684 19.3703 12.8402 20.3327 11.8213C21.3692 10.7239 21.9673 9.01181 22.0053 6.8797C22.3886 7.67145 22.7656 8.52436 23.1069 9.40676C23.7691 11.1185 24.2816 12.9012 24.4631 14.5415C24.6124 15.8904 24.5296 17.0645 24.189 18.0121H26.559C26.8429 16.8192 26.8591 15.5395 26.7196 14.2787C26.5076 12.3636 25.9233 10.3713 25.2177 8.54752C24.5099 6.71775 23.6642 5.01703 22.9013 3.67509C22.1588 2.36912 21.4393 1.30475 20.967 0.818226Z" fill="#00A88E"/>
<path fill-rule="evenodd" clip-rule="evenodd" d="M10.5354 18.0194C10.5355 18.0198 10.5356 18.0201 10.5357 18.0205H0.375V35.0241H36.71V18.0205H26.5887C26.5888 18.0201 26.5888 18.0198 26.5889 18.0194H24.2181C24.2179 18.0198 24.2178 18.0201 24.2177 18.0205H12.9336C12.9335 18.0201 12.9333 18.0198 12.9332 18.0194H10.5354ZM8.22005 25.3575V20.35H17.3038V25.3575H8.22005ZM19.5747 25.3575V20.35H28.6585V25.3575H19.5747ZM30.9294 25.3575V20.35H34.439V25.3575H30.9294ZM25.2521 27.687H34.439V32.6945H25.2521V27.687ZM22.9811 27.687V32.6945H13.8974V27.687H22.9811ZM11.6265 27.687V32.6945H2.64593V27.687H11.6265ZM5.94911 25.3575H2.64593V20.35H5.94911V25.3575Z" fill="#1D1D1B"/>
</svg>
