<svg width="37" height="38" viewBox="0 0 37 38" fill="none" xmlns="http://www.w3.org/2000/svg">
<path fill-rule="evenodd" clip-rule="evenodd" d="M13.4867 1.01959C16.8547 0.0603353 20.3404 0.0575431 23.6218 1.02228L24.5032 1.28142L24.4493 2.20926C24.375 3.48854 25.057 4.86213 26.2407 5.53645C27.4385 6.21873 28.8551 6.14702 29.9883 5.382L31.2643 7.3203C29.4278 8.56017 27.0829 8.68895 25.1129 7.56682C23.4309 6.60865 22.3843 4.85601 22.1802 3.04723C19.823 2.48903 17.3551 2.48857 14.924 3.05187C14.74 4.83569 13.7717 6.60404 11.9736 7.57407C10.2974 8.52349 8.35158 8.56896 6.67895 7.79643C4.99096 9.62228 3.78513 11.8011 3.06703 14.1371C4.55712 15.2178 5.54437 16.9589 5.54437 18.982C5.54437 21.0384 4.46192 22.6764 3.06602 23.7093C3.42754 24.8844 3.90842 26.0736 4.50192 27.1254C5.08701 28.1623 5.86171 29.1588 6.68975 30.0623C8.3642 29.293 10.3109 29.3425 11.9863 30.2969L10.8585 32.3273C9.66078 31.645 8.24413 31.7167 7.11097 32.4817L6.32641 33.0114L5.65966 32.3362C4.52821 31.1904 3.36459 29.8052 2.50465 28.2812C1.65262 26.7712 1.02534 25.0691 0.610139 23.4924L0.375 22.5994L1.18022 22.1645C2.38898 21.5117 3.24401 20.3539 3.24401 18.982C3.24401 17.552 2.43174 16.3334 1.20711 15.7133L0.375447 15.2922L0.60779 14.3804C1.44888 11.0798 3.13521 7.97712 5.67714 5.51019L6.34328 4.86371L7.11097 5.382C8.24413 6.14702 9.66078 6.21873 10.8585 5.53645L10.8713 5.52917L10.8843 5.52222C12.1125 4.86374 12.7265 3.52649 12.65 2.20926L12.5956 1.27341L13.4867 1.01959Z" fill="#1D1D1B"/>
<path fill-rule="evenodd" clip-rule="evenodd" d="M23.5982 36.8348C20.2302 37.794 16.7445 37.7968 13.4632 36.8321L12.5818 36.5729L12.6357 35.6451C12.71 34.3658 12.028 32.9922 10.8442 32.3179C9.64648 31.6356 8.22983 31.7073 7.09667 32.4724L5.82066 30.5341C7.65717 29.2942 10.0021 29.1654 11.972 30.2875C13.6541 31.2457 14.7006 32.9984 14.9047 34.8071C17.262 35.3653 19.7299 35.3658 22.161 34.8025C22.345 33.0187 23.3133 31.2503 25.1114 30.2803C26.7875 29.3309 28.7334 29.2854 30.406 30.0579C32.094 28.2321 33.2998 26.0533 34.0179 23.7173C32.5278 22.6365 31.5406 20.8955 31.5406 18.8724C31.5406 16.816 32.623 15.178 34.0189 14.145C33.6574 12.97 33.1765 11.7808 32.583 10.729C31.998 9.69209 31.2233 8.69554 30.3952 7.79203C28.7208 8.56134 26.7741 8.51182 25.0987 7.55745L26.2264 5.52708C27.4242 6.20936 28.8408 6.13765 29.974 5.37263L30.7586 4.84295L31.4253 5.51816C32.5568 6.66396 33.7204 8.0492 34.5803 9.57319C35.4323 11.0832 36.0596 12.7852 36.4748 14.362L36.71 15.2549L35.9047 15.6898C34.696 16.3427 33.841 17.5005 33.841 18.8724C33.841 20.3024 34.6532 21.521 35.8779 22.1411L36.7095 22.5622L36.4772 23.474C35.6361 26.7745 33.9498 29.8773 31.4078 32.3442L30.7417 32.9907L29.974 32.4724C28.8408 31.7073 27.4242 31.6356 26.2264 32.3179L26.2137 32.3252L26.2007 32.3321C24.9725 32.9906 24.3585 34.3279 24.435 35.6451L24.4894 36.581L23.5982 36.8348Z" fill="#1D1D1B"/>
<path fill-rule="evenodd" clip-rule="evenodd" d="M18.5498 9.92159C13.6087 9.92159 9.6031 13.978 9.6031 18.9818C9.6031 23.9856 13.6087 28.042 18.5498 28.042C23.4909 28.042 27.4965 23.9856 27.4965 18.9818C27.4965 13.978 23.4909 9.92159 18.5498 9.92159ZM7.30273 18.9818C7.30273 12.6914 12.3382 7.59204 18.5498 7.59204C24.7614 7.59204 29.7969 12.6914 29.7969 18.9818C29.7969 25.2722 24.7614 30.3715 18.5498 30.3715C12.3382 30.3715 7.30273 25.2722 7.30273 18.9818Z" fill="#1D1D1B"/>
<path fill-rule="evenodd" clip-rule="evenodd" d="M12.0186 14.2733H25.1785V23.5904H12.0186V14.2733ZM13.3988 15.671V22.1927H23.7983V15.671H13.3988Z" fill="#00A88E"/>
<path fill-rule="evenodd" clip-rule="evenodd" d="M12.228 15.8544L12.9936 14.6914L18.5502 18.4428L24.1067 14.6914L24.8723 15.8544L18.5502 20.1226L12.228 15.8544Z" fill="#00A88E"/>
</svg>
