<svg width="61" height="61" viewBox="0 0 61 61" fill="none" xmlns="http://www.w3.org/2000/svg">
<path fill-rule="evenodd" clip-rule="evenodd" d="M47.9367 1.6452L50.3583 4.21822C54.5294 8.65019 55.5913 15.1319 54.0629 20.2989C53.293 22.9015 51.8409 25.2587 49.694 26.8567C47.5232 28.4725 44.7406 29.2361 41.4961 28.786L41.9083 25.8145C44.4179 26.1626 46.3995 25.5691 47.9028 24.4502C49.43 23.3133 50.5619 21.558 51.1861 19.4479C52.1393 16.2255 51.8498 12.3814 50.1956 9.15399C49.722 10.916 48.9842 12.3356 48.0475 13.429C46.4951 15.2412 44.479 16.0535 42.5475 16.0532C40.6517 16.0528 38.8173 15.2654 37.6395 13.8727C36.806 12.8871 36.3407 11.6397 36.3957 10.2762C34.312 10.3795 32.9468 11.2946 32.0589 12.3907C30.8793 13.847 30.4912 15.6914 30.5921 16.7239L27.6063 17.0157C27.4288 15.1987 28.0519 12.5712 29.7278 10.5023C31.4822 8.33645 34.3469 6.83894 38.4168 7.37659L40.3255 7.62873L39.6142 9.41782C39.1857 10.4956 39.4205 11.3328 39.9302 11.9355C40.4838 12.5901 41.447 13.0529 42.548 13.0531C43.6133 13.0533 44.7933 12.6165 45.7692 11.4773C46.7576 10.3235 47.6156 8.34954 47.7677 5.1745L47.9367 1.6452Z" fill="#1D1D1B"/>
<path fill-rule="evenodd" clip-rule="evenodd" d="M59.8296 36.4006L58.4988 33.1274C57.0896 29.6614 54.0795 27.2239 50.8805 26.1721C47.7014 25.1269 44.0305 25.3707 41.4778 27.7487L43.5227 29.9438C45.0321 28.5377 47.4442 28.2003 49.9435 29.022C51.3572 29.4868 52.7007 30.2971 53.786 31.3792C52.8975 31.3344 52.0771 31.4251 51.3298 31.6391C49.573 32.1419 48.3497 33.2934 47.7251 34.6577C47.1153 35.9895 47.0713 37.5444 47.6829 38.8462C48.0532 39.6342 48.6481 40.2907 49.4272 40.7221C48.8198 41.6623 48.0283 42.1039 47.2704 42.2985C46.0872 42.6023 44.8941 42.3226 44.3533 42.0079L42.8446 44.6009C44.0665 45.312 46.0696 45.704 48.0164 45.2043C50.0841 44.6735 52.02 43.1528 52.9235 40.2133L53.4892 38.3729L51.5664 38.2745C50.901 38.2404 50.5698 37.9357 50.3982 37.5704C50.1976 37.1436 50.1738 36.5158 50.4527 35.9066C50.7168 35.33 51.2506 34.7822 52.1553 34.5232C53.0785 34.259 54.5105 34.2656 56.5505 35.0844L59.8296 36.4006Z" fill="#1D1D1B"/>
<path fill-rule="evenodd" clip-rule="evenodd" d="M23 57.2422C33.7696 57.2422 42.5 48.5117 42.5 37.7422C42.5 26.9726 33.7696 18.2422 23 18.2422C12.2304 18.2422 3.5 26.9726 3.5 37.7422C3.5 48.5117 12.2304 57.2422 23 57.2422ZM23 60.2422C35.4264 60.2422 45.5 50.1686 45.5 37.7422C45.5 25.3158 35.4264 15.2422 23 15.2422C10.5736 15.2422 0.5 25.3158 0.5 37.7422C0.5 50.1686 10.5736 60.2422 23 60.2422Z" fill="#00A88E"/>
<path d="M27.5 37.7422C27.5 40.2275 25.4853 42.2422 23 42.2422C20.5147 42.2422 18.5 40.2275 18.5 37.7422C18.5 35.2569 20.5147 33.2422 23 33.2422C25.4853 33.2422 27.5 35.2569 27.5 37.7422Z" fill="#1D1D1B"/>
<path d="M30.0869 22.7422L32.685 24.2422L24.4923 38.4323L21.8942 36.9323L30.0869 22.7422Z" fill="#1D1D1B"/>
<path d="M12.5 39.2422L12.5 36.2422L24.5 36.2422L24.5 39.2422L12.5 39.2422Z" fill="#1D1D1B"/>
<path d="M3.5 36.2422H8V39.2422H3.5V36.2422Z" fill="#00A88E"/>
<path d="M38 36.2422H42.5V39.2422H38V36.2422Z" fill="#00A88E"/>
<path d="M21.5 18.2422H24.5V22.7422H21.5V18.2422Z" fill="#00A88E"/>
<path d="M21.5 52.7422H24.5V57.2422H21.5V52.7422Z" fill="#00A88E"/>
</svg>
