<svg width="61" height="61" viewBox="0 0 61 61" fill="none" xmlns="http://www.w3.org/2000/svg">
<path fill-rule="evenodd" clip-rule="evenodd" d="M30.5 52.7422C42.9264 52.7422 53 42.6686 53 30.2422C53 17.8158 42.9264 7.74219 30.5 7.74219C18.0736 7.74219 8 17.8158 8 30.2422C8 42.6686 18.0736 52.7422 30.5 52.7422ZM30.5 55.7422C44.5833 55.7422 56 44.3255 56 30.2422C56 16.1589 44.5833 4.74219 30.5 4.74219C16.4167 4.74219 5 16.1589 5 30.2422C5 44.3255 16.4167 55.7422 30.5 55.7422Z" fill="#00A88E"/>
<path d="M29 0.242188H32V10.7422H29V0.242188Z" fill="#1D1D1B"/>
<path fill-rule="evenodd" clip-rule="evenodd" d="M29 0.242188V10.7422H32V0.242188H29Z" fill="#00A88E"/>
<path d="M60.5 28.7422L60.5 31.7422L50 31.7422L50 28.7422L60.5 28.7422Z" fill="#1D1D1B"/>
<path fill-rule="evenodd" clip-rule="evenodd" d="M60.5 28.7422L50 28.7422L50 31.7422L60.5 31.7422L60.5 28.7422Z" fill="#00A88E"/>
<path d="M29 49.7422H32V60.2422H29V49.7422Z" fill="#1D1D1B"/>
<path fill-rule="evenodd" clip-rule="evenodd" d="M29 49.7422V60.2422H32V49.7422H29Z" fill="#00A88E"/>
<path d="M11 28.7422L11 31.7422L0.5 31.7422L0.5 28.7422L11 28.7422Z" fill="#1D1D1B"/>
<path fill-rule="evenodd" clip-rule="evenodd" d="M11 28.7422L0.5 28.7422L0.5 31.7422L11 31.7422L11 28.7422Z" fill="#00A88E"/>
<path fill-rule="evenodd" clip-rule="evenodd" d="M26.8888 31.7528L21.4888 26.3528L23.6101 24.2314L29.0101 29.6314L26.8888 31.7528Z" fill="#1D1D1B"/>
<path fill-rule="evenodd" clip-rule="evenodd" d="M21.4888 29.6314L26.8888 24.2314L29.0101 26.3528L23.6101 31.7528L21.4888 29.6314Z" fill="#1D1D1B"/>
<path fill-rule="evenodd" clip-rule="evenodd" d="M37.3898 31.7523L31.9897 26.3523L34.1111 24.231L39.5111 29.631L37.3898 31.7523Z" fill="#1D1D1B"/>
<path fill-rule="evenodd" clip-rule="evenodd" d="M31.9897 29.631L37.3898 24.231L39.5111 26.3523L34.1111 31.7523L31.9897 29.631Z" fill="#1D1D1B"/>
<path fill-rule="evenodd" clip-rule="evenodd" d="M22.8789 17.2266C24.6326 16.0918 26.7509 15.2422 29 15.2422H32C36.5628 15.2422 40.3877 18.4902 42.3363 21.2221C43.4795 22.5889 44 24.4288 44 26.0422V37.7422H39.5V43.7422H21.5V37.7422H17V26.0422C17 24.3567 17.5616 22.7007 18.6368 21.2598C19.6449 19.8367 21.1284 18.3592 22.8789 17.2266ZM24.5086 19.7453C23.0787 20.6705 21.8671 21.8857 21.0754 23.0072L21.063 23.0249L21.05 23.0422C20.3338 23.9971 20 25.0345 20 26.0422V34.7422H24.5V40.7422H36.5V34.7422H41V26.0422C41 24.9778 40.6349 23.8461 40.0111 23.1184L39.9652 23.0648L39.9245 23.0072C38.2608 20.6503 35.2065 18.2422 32 18.2422H29C27.4991 18.2422 25.9424 18.8176 24.5086 19.7453Z" fill="#1D1D1B"/>
<path fill-rule="evenodd" clip-rule="evenodd" d="M26.751 42.2427L26.751 36.2427L28.251 36.2427L28.251 42.2427L26.751 42.2427Z" fill="#1D1D1B"/>
<path fill-rule="evenodd" clip-rule="evenodd" d="M29.7515 42.2427V36.2427H31.2515V42.2427H29.7515Z" fill="#1D1D1B"/>
<path fill-rule="evenodd" clip-rule="evenodd" d="M32.752 42.2427V36.2427H34.252V42.2427H32.752Z" fill="#1D1D1B"/>
</svg>
