<svg width="172" height="52" viewBox="0 0 172 52" fill="none" xmlns="http://www.w3.org/2000/svg">
<path fill-rule="evenodd" clip-rule="evenodd" d="M2.6696 0.382324C1.19522 0.382324 0 1.57755 0 3.05192V39.3886C0 40.863 1.19522 42.0582 2.6696 42.0582H76.8589L86 51.1993L95.1411 42.0582H169.33C170.805 42.0582 172 40.863 172 39.3886V3.05192C172 1.57754 170.805 0.382324 169.33 0.382324H2.6696Z" fill="#FFE810"/>
<path d="M24.445 15.778H27.053L28.541 23.458C28.605 23.7567 28.6637 24.1727 28.717 24.706H29.037C29.0903 24.1727 29.149 23.7567 29.213 23.458L30.909 15.778H33.341L35.037 23.458C35.101 23.7567 35.1597 24.1727 35.213 24.706H35.533C35.5863 24.1727 35.645 23.7567 35.709 23.458L37.197 15.778H39.805L37.277 26.978H33.469L32.541 22.37C32.5303 22.3274 32.493 22.162 32.429 21.874C32.3757 21.5754 32.3277 21.1114 32.285 20.482H31.965C31.9223 21.1114 31.869 21.5754 31.805 21.874C31.7517 22.162 31.7197 22.3274 31.709 22.37L30.781 26.978H26.973L24.445 15.778ZM43.8424 19.074C44.8557 19.074 45.677 19.3194 46.3064 19.81C46.9464 20.3007 47.2664 21.0367 47.2664 22.018V26.978H44.8664V26.498H44.5464C44.3117 26.7007 44.013 26.8607 43.6504 26.978C43.2984 27.106 42.9144 27.17 42.4984 27.17C41.6984 27.17 41.0424 26.9567 40.5304 26.53C40.029 26.1034 39.7784 25.522 39.7784 24.786C39.7784 24.0607 40.045 23.474 40.5784 23.026C41.1117 22.578 41.8584 22.354 42.8184 22.354H44.8664V22.162C44.8664 21.8527 44.7757 21.6127 44.5944 21.442C44.413 21.2714 44.1517 21.186 43.8104 21.186C43.533 21.186 43.293 21.2447 43.0904 21.362C42.8984 21.4687 42.7757 21.6234 42.7224 21.826H40.1304C40.2157 21.0047 40.589 20.3434 41.2504 19.842C41.9117 19.33 42.7757 19.074 43.8424 19.074ZM43.1544 25.266C43.8264 25.266 44.397 24.994 44.8664 24.45V23.922H43.1384C42.8504 23.922 42.6264 23.9807 42.4664 24.098C42.3064 24.2047 42.2264 24.37 42.2264 24.594C42.2264 24.8074 42.3117 24.9727 42.4824 25.09C42.653 25.2074 42.877 25.266 43.1544 25.266ZM52.6408 26.978C50.7208 26.978 49.7608 26.0074 49.7608 24.066V21.458H48.3208V19.266H49.7608V17.186H52.1608V19.266H54.4488V21.458H52.1608V23.778C52.1608 24.3967 52.4808 24.706 53.1208 24.706H54.2888V26.978H52.6408ZM59.4503 27.17C58.6929 27.17 58.0103 26.9994 57.4023 26.658C56.8049 26.306 56.3356 25.8207 55.9943 25.202C55.6529 24.5834 55.4823 23.89 55.4823 23.122C55.4823 22.354 55.6529 21.6607 55.9943 21.042C56.3356 20.4234 56.8049 19.9434 57.4023 19.602C58.0103 19.25 58.6929 19.074 59.4503 19.074C60.0796 19.074 60.6609 19.202 61.1943 19.458C61.7276 19.7034 62.1649 20.0607 62.5063 20.53C62.8583 20.9887 63.0769 21.5274 63.1623 22.146H60.7943C60.6983 21.8047 60.5276 21.554 60.2823 21.394C60.0476 21.234 59.7596 21.154 59.4183 21.154C58.9596 21.154 58.5756 21.3247 58.2663 21.666C57.9676 22.0074 57.8183 22.4927 57.8183 23.122C57.8183 23.7514 57.9676 24.2367 58.2663 24.578C58.5756 24.9194 58.9596 25.09 59.4183 25.09C59.7596 25.09 60.0476 25.01 60.2823 24.85C60.5276 24.69 60.6983 24.4394 60.7943 24.098H63.1623C63.0769 24.7167 62.8583 25.2607 62.5063 25.73C62.1649 26.1887 61.7276 26.546 61.1943 26.802C60.6609 27.0474 60.0796 27.17 59.4503 27.17ZM64.6296 15.458H67.0296V20.114H67.3496C67.531 19.826 67.803 19.5807 68.1656 19.378C68.539 19.1754 68.9976 19.074 69.5416 19.074C70.3203 19.074 70.9816 19.298 71.5256 19.746C72.0696 20.194 72.3416 20.9514 72.3416 22.018V26.978H69.9416V22.866C69.9416 22.3754 69.819 22.018 69.5736 21.794C69.339 21.57 69.0136 21.458 68.5976 21.458C68.107 21.458 67.723 21.618 67.4456 21.938C67.1683 22.2474 67.0296 22.7114 67.0296 23.33V26.978H64.6296V15.458ZM81.2345 26.978C79.3145 26.978 78.3545 26.0074 78.3545 24.066V21.458H76.9145V19.266H78.3545V17.186H80.7545V19.266H83.0425V21.458H80.7545V23.778C80.7545 24.3967 81.0745 24.706 81.7145 24.706H82.8825V26.978H81.2345ZM84.6765 15.458H87.0765V20.114H87.3965C87.5778 19.826 87.8498 19.5807 88.2125 19.378C88.5858 19.1754 89.0445 19.074 89.5885 19.074C90.3672 19.074 91.0285 19.298 91.5725 19.746C92.1165 20.194 92.3885 20.9514 92.3885 22.018V26.978H89.9885V22.866C89.9885 22.3754 89.8658 22.018 89.6205 21.794C89.3858 21.57 89.0605 21.458 88.6445 21.458C88.1538 21.458 87.7698 21.618 87.4925 21.938C87.2152 22.2474 87.0765 22.7114 87.0765 23.33V26.978H84.6765V15.458ZM97.6698 27.17C96.9018 27.17 96.2138 26.9994 95.6058 26.658C94.9978 26.306 94.5231 25.8207 94.1818 25.202C93.8404 24.5834 93.6698 23.89 93.6698 23.122C93.6698 22.354 93.8351 21.666 94.1658 21.058C94.5071 20.4394 94.9818 19.954 95.5898 19.602C96.1978 19.25 96.8964 19.074 97.6858 19.074C98.4218 19.074 99.0778 19.234 99.6538 19.554C100.23 19.8634 100.678 20.306 100.998 20.882C101.328 21.4474 101.494 22.0927 101.494 22.818V23.746H96.0698C96.1658 24.194 96.3524 24.53 96.6298 24.754C96.9178 24.978 97.2538 25.09 97.6378 25.09C97.9471 25.09 98.2191 25.0314 98.4538 24.914C98.6884 24.786 98.8538 24.6207 98.9498 24.418H101.318C101.104 25.2287 100.667 25.89 100.006 26.402C99.3551 26.914 98.5764 27.17 97.6698 27.17ZM99.1898 22.114C99.1364 21.7834 98.9764 21.5167 98.7098 21.314C98.4431 21.1007 98.1071 20.994 97.7018 20.994C97.3391 20.994 97.0244 21.09 96.7578 21.282C96.4911 21.474 96.2884 21.7514 96.1498 22.114H99.1898ZM105.834 19.266H108.458L109.738 23.426C109.749 23.458 109.781 23.57 109.834 23.762C109.898 23.954 109.951 24.21 109.994 24.53H110.314C110.357 24.21 110.405 23.954 110.458 23.762C110.522 23.57 110.559 23.458 110.57 23.426L111.85 19.266H114.474L111.722 26.978H108.586L105.834 19.266ZM115.566 15.458H118.094V17.986H115.566V15.458ZM115.63 19.266H118.03V26.978H115.63V19.266ZM122.938 27.17C122.298 27.17 121.717 27.01 121.194 26.69C120.671 26.37 120.255 25.9114 119.946 25.314C119.647 24.7167 119.498 24.018 119.498 23.218C119.498 22.3434 119.658 21.5967 119.978 20.978C120.309 20.3487 120.741 19.874 121.274 19.554C121.818 19.234 122.405 19.074 123.034 19.074C123.45 19.074 123.866 19.154 124.282 19.314C124.698 19.474 125.055 19.7354 125.354 20.098V15.458H127.754V26.978H125.354V26.066H125.034C124.831 26.45 124.543 26.7327 124.17 26.914C123.807 27.0847 123.397 27.17 122.938 27.17ZM123.642 24.978C124.122 24.978 124.527 24.8234 124.858 24.514C125.189 24.2047 125.354 23.7407 125.354 23.122C125.354 22.5034 125.189 22.0394 124.858 21.73C124.527 21.4207 124.122 21.266 123.642 21.266C123.162 21.266 122.757 21.4207 122.426 21.73C122.095 22.0394 121.93 22.5034 121.93 23.122C121.93 23.7407 122.095 24.2047 122.426 24.514C122.757 24.8234 123.162 24.978 123.642 24.978ZM133.201 27.17C132.433 27.17 131.745 26.9994 131.137 26.658C130.529 26.306 130.054 25.8207 129.713 25.202C129.372 24.5834 129.201 23.89 129.201 23.122C129.201 22.354 129.366 21.666 129.697 21.058C130.038 20.4394 130.513 19.954 131.121 19.602C131.729 19.25 132.428 19.074 133.217 19.074C133.953 19.074 134.609 19.234 135.185 19.554C135.761 19.8634 136.209 20.306 136.529 20.882C136.86 21.4474 137.025 22.0927 137.025 22.818V23.746H131.601C131.697 24.194 131.884 24.53 132.161 24.754C132.449 24.978 132.785 25.09 133.169 25.09C133.478 25.09 133.75 25.0314 133.985 24.914C134.22 24.786 134.385 24.6207 134.481 24.418H136.849C136.636 25.2287 136.198 25.89 135.537 26.402C134.886 26.914 134.108 27.17 133.201 27.17ZM134.721 22.114C134.668 21.7834 134.508 21.5167 134.241 21.314C133.974 21.1007 133.638 20.994 133.233 20.994C132.87 20.994 132.556 21.09 132.289 21.282C132.022 21.474 131.82 21.7514 131.681 22.114H134.721ZM142.234 27.17C141.434 27.17 140.724 26.9887 140.106 26.626C139.487 26.2634 139.007 25.778 138.666 25.17C138.335 24.5514 138.17 23.8687 138.17 23.122C138.17 22.3754 138.335 21.698 138.666 21.09C139.007 20.4714 139.487 19.9807 140.106 19.618C140.724 19.2554 141.434 19.074 142.234 19.074C143.034 19.074 143.743 19.2554 144.362 19.618C144.98 19.9807 145.455 20.4714 145.786 21.09C146.127 21.698 146.298 22.3754 146.298 23.122C146.298 23.8687 146.127 24.5514 145.786 25.17C145.455 25.778 144.98 26.2634 144.362 26.626C143.743 26.9887 143.034 27.17 142.234 27.17ZM142.234 24.962C142.724 24.962 143.124 24.7967 143.434 24.466C143.743 24.1247 143.898 23.6767 143.898 23.122C143.898 22.5674 143.743 22.1247 143.434 21.794C143.124 21.4527 142.724 21.282 142.234 21.282C141.743 21.282 141.343 21.4527 141.034 21.794C140.724 22.1247 140.57 22.5674 140.57 23.122C140.57 23.6767 140.724 24.1247 141.034 24.466C141.343 24.7967 141.743 24.962 142.234 24.962Z" fill="#1D1D1B"/>
</svg>
