<svg width="45" height="49" viewBox="0 0 45 49" fill="none" xmlns="http://www.w3.org/2000/svg">
<g clip-path="url(#clip0)">
<path d="M26.1247 1.09467C23.9149 -0.148348 21.2167 -0.148348 19.0069 1.09467L3.68177 9.71504C1.396 11.0008 -0.0185547 13.4195 -0.0185547 16.042V32.9583C-0.0185547 35.5809 1.396 37.9996 3.68177 39.2853L19.0069 47.9057C21.2167 49.1487 23.9149 49.1487 26.1247 47.9057L41.4498 39.2853C43.7356 37.9996 45.1502 35.5809 45.1502 32.9583V16.042C45.1502 13.4195 43.7356 11.0008 41.4498 9.71504L26.1247 1.09467Z" fill="#00A88E"/>
<path fill-rule="evenodd" clip-rule="evenodd" d="M13.249 27.2544C13.249 32.7116 20.2961 35.8579 22.3135 36.6682V11.2161L13.249 16.4522V26.8695" fill="#B455A0"/>
<path fill-rule="evenodd" clip-rule="evenodd" d="M11.8545 16.0972L22.3136 9.82134V9.12402L11.8545 15.2005L11.8545 16.0972Z" fill="#008E77"/>
<path fill-rule="evenodd" clip-rule="evenodd" d="M13.2491 16.8038L22.3136 11.5676V9.82153L11.8545 15.8973V27.1715C11.8552 34.6447 22.2864 38.2149 22.3136 38.2247V36.7115C20.2962 35.9012 13.2491 32.6782 13.2491 27.221V16.8038Z" fill="white"/>
<path fill-rule="evenodd" clip-rule="evenodd" d="M22.314 11.2161V36.6682C24.3313 35.8579 31.3791 32.7116 31.3791 27.2544V16.4041L22.314 11.2161Z" fill="#A23293"/>
<path fill-rule="evenodd" clip-rule="evenodd" d="M32.7737 16.0972L22.314 9.82134V9.12402L32.7737 15.2005V16.0972Z" fill="#008E77"/>
<path fill-rule="evenodd" clip-rule="evenodd" d="M31.3791 16.7557L22.314 11.5676V9.82153L32.7737 15.8973V27.1715C32.773 34.6447 22.3412 38.2149 22.314 38.2247V36.7115C24.3313 35.9012 31.3791 32.6782 31.3791 27.1722V16.7557Z" fill="#E5E6E3"/>
<path fill-rule="evenodd" clip-rule="evenodd" d="M27.1551 21.7775C27.745 21.4581 28.1502 20.8424 28.1502 20.1249C28.1502 19.0824 27.3022 18.2372 26.2563 18.2372C25.8358 18.2372 25.4502 18.3795 25.1357 18.611C24.4579 17.9423 23.4168 17.5106 22.3513 17.4925C20.6429 17.4625 19.2078 18.6758 18.8891 20.2901L18.8291 20.2859C16.9296 20.2594 15.3676 21.7733 15.3411 23.6665C15.3146 25.5619 16.9254 27.2536 18.9609 27.2536L26.2305 27.2542H26.4606C28.0086 27.2542 29.2645 26.0493 29.2868 24.5152C29.3049 23.1931 28.3929 22.0746 27.1551 21.7775Z" fill="#6A1F5B"/>
<path fill-rule="evenodd" clip-rule="evenodd" d="M27.1551 22.4748C27.745 22.1554 28.1502 21.5397 28.1502 20.8228C28.1502 19.7796 27.3022 18.9345 26.2563 18.9345C25.8358 18.9345 25.4502 19.0767 25.1357 19.3083C24.4579 18.6395 23.4168 18.2079 22.3513 18.1898C20.6429 18.1598 19.2078 19.3731 18.8891 20.9874L18.8291 20.9832C16.9296 20.9567 15.3676 22.4713 15.3411 24.3645C15.3146 26.2591 16.9254 27.9515 18.9609 27.9515H26.4606C28.0086 27.9515 29.2645 26.7472 29.2868 25.2131C29.3049 23.8903 28.3929 22.7725 27.1551 22.4748Z" fill="white"/>
<path fill-rule="evenodd" clip-rule="evenodd" d="M18.1304 23.8983L19.154 22.8746L20.9015 24.6221L25.9396 19.584L26.9626 20.6083L20.9022 26.6694L18.1304 23.8983Z" fill="#A23293"/>
</g>
<defs>
<clipPath id="clip0">
<rect width="44.6283" height="49" fill="white"/>
</clipPath>
</defs>
</svg>
