<svg width="46" height="49" viewBox="0 0 46 49" fill="none" xmlns="http://www.w3.org/2000/svg">
<g clip-path="url(#clip0)">
<path d="M26.5417 1.09443C24.3319 -0.148592 21.6337 -0.148593 19.4239 1.09443L4.09876 9.7148C1.81299 11.0005 0.398438 13.4192 0.398438 16.0418V32.9581C0.398438 35.5807 1.81299 37.9993 4.09876 39.2851L19.4239 47.9054C21.6337 49.1485 24.3319 49.1485 26.5417 47.9054L41.8668 39.2851C44.1526 37.9993 45.5672 35.5807 45.5672 32.9581V16.0418C45.5672 13.4192 44.1526 11.0005 41.8668 9.7148L26.5417 1.09443Z" fill="#00A88E"/>
<path d="M34.2748 11.7961H11.6904V13.3841H34.2748V11.7961Z" fill="#4D4D4F"/>
<path d="M27.016 29.264C27.016 28.3906 25.2093 27.676 22.9831 27.676C20.7569 27.676 18.9502 28.3906 18.9502 29.264C18.9502 30.1374 20.7569 30.8519 22.9831 30.8519C25.2093 30.8519 27.016 30.1374 27.016 29.264Z" fill="#4D4D4F"/>
<path d="M34.2748 13.3843H11.6904V29.2639H34.2748V13.3843Z" fill="#6D6E71"/>
<path d="M32.6617 14.9722H13.3037V27.6759H32.6617V14.9722Z" fill="#44ADE2"/>
<path d="M34.2742 36.4097H24.5952V37.2037H34.2742V36.4097Z" fill="#6D6E71"/>
<path d="M34.2742 32.4399H24.5952V36.4098H34.2742V32.4399Z" fill="#4D4D4F"/>
<path d="M32.6612 33.2339H26.2085V35.6158H32.6612V33.2339Z" fill="#A5CF4C"/>
<path d="M22.9822 16.5603L19.3525 18.5611V22.531C19.3525 25.0003 22.9822 26.1754 22.9822 26.1754C22.9822 26.1754 26.6118 25.0003 26.6118 22.531V18.5611L22.9822 16.5603ZM25.8052 22.5231C25.8052 24.0396 23.7162 25.0162 22.9822 25.3179C22.2482 25.0162 20.1591 24.0396 20.1591 22.5231V19.0296L22.9822 17.4416L25.8052 19.0296V22.5231Z" fill="white"/>
<path d="M22.9826 24.5H11.6904V37.2037H22.9826V24.5Z" fill="#6D6E71"/>
<path d="M22.9826 23.7061H11.6904V24.5H22.9826V23.7061Z" fill="#4D4D4F"/>
<path d="M22.1766 25.2939H12.4976V35.6157H22.1766V25.2939Z" fill="#F04E45"/>
<path d="M17.3358 27.2554L14.916 28.5893V31.2332C14.916 32.8688 17.3358 33.6549 17.3358 33.6549C17.3358 33.6549 19.7555 32.8609 19.7555 31.2332V28.5893L17.3358 27.2554ZM18.9489 31.2253C18.9489 31.9637 17.9326 32.5433 17.3358 32.8132C16.7389 32.5592 15.7226 31.9796 15.7226 31.2253V29.0577L17.3358 28.1605L18.9489 29.0577V31.2253Z" fill="white"/>
</g>
<defs>
<clipPath id="clip0">
<rect width="45.1316" height="49" fill="white" transform="translate(0.416992)"/>
</clipPath>
</defs>
</svg>
