<svg width="46" height="49" viewBox="0 0 46 49" fill="none" xmlns="http://www.w3.org/2000/svg">
<path d="M0.500001 14.877V34.1221C0.499497 35.0408 0.746826 35.9432 1.21689 36.7379C1.68695 37.5325 2.36301 38.1911 3.17646 38.6467L20.4304 48.3131C21.233 48.763 22.1414 48.9996 23.0658 48.9996C23.9902 48.9996 24.8986 48.763 25.7012 48.3131L42.9559 38.6467C43.7691 38.1908 44.4449 37.5322 44.9148 36.7376C45.3847 35.943 45.632 35.0407 45.6316 34.1221V14.877C45.6318 13.9586 45.3844 13.0564 44.9145 12.262C44.4446 11.4675 43.7689 10.809 42.9559 10.3532L25.7012 0.685932C24.8986 0.236116 23.9902 -0.000488281 23.0658 -0.000488281C22.1414 -0.000488281 21.233 0.236116 20.4304 0.685932L3.17646 10.3532C2.36318 10.8088 1.68724 11.4672 1.2172 12.2617C0.747153 13.0562 0.499722 13.9584 0.500001 14.877Z" fill="#00A88E"/>
<path d="M34.349 11.8547H11.7832V12.6451H34.349V11.8547Z" fill="#4D4D4F"/>
<path d="M27.0953 29.242C27.0953 28.3727 25.2909 27.6614 23.0657 27.6614C20.8406 27.6614 19.0361 28.3727 19.0361 29.242C19.0361 30.1114 20.8398 30.8227 23.0657 30.8227C25.2917 30.8227 27.0953 30.1114 27.0953 29.242Z" fill="#4D4D4F"/>
<path d="M34.349 12.6453H11.7832V29.242H34.349V12.6453Z" fill="#6D6E71"/>
<path d="M32.7366 14.2258H13.3945V27.6613H32.7366V14.2258Z" fill="#44ADE2"/>
<path d="M34.3488 36.355H24.6777V37.1453H34.3488V36.355Z" fill="#6D6E71"/>
<path d="M34.3488 32.4033H24.6777V36.3549H34.3488V32.4033Z" fill="#4D4D4F"/>
<path d="M33.5426 33.1936H25.4834V35.5646H33.5426V33.1936Z" fill="#A5CF4C"/>
<path d="M23.0661 16.1638L19.4395 18.157V22.0999C19.4395 24.5499 23.0661 25.7243 23.0661 25.7243C23.0661 25.7243 26.6927 24.5531 26.6927 22.0999V18.157L23.0661 16.1638ZM25.8868 22.0999C25.8868 23.6015 23.8019 24.5807 23.0661 24.8779C22.3295 24.5807 20.2454 23.6055 20.2454 22.0999V18.6225L23.0661 17.0711L25.8868 18.6209V22.0999Z" fill="white"/>
<path d="M23.0661 23.71H11.7832V37.1454H23.0661V23.71Z" fill="#6D6E71"/>
<path d="M23.0661 22.9194H11.7832V23.7098H23.0661V22.9194Z" fill="#4D4D4F"/>
<path d="M22.2599 24.5H12.5889V35.5645H22.2599V24.5Z" fill="#FDB924"/>
<path d="M17.4241 26.1985C16.9533 26.1996 16.4977 26.3624 16.1365 26.6585C15.7752 26.9547 15.5312 27.3656 15.4467 27.8199C15.3623 28.2741 15.4427 28.743 15.6741 29.1452C15.9054 29.5473 16.2731 29.8573 16.7133 30.0213V30.848L17.0687 31.1965V31.4336L16.7133 31.7813V32.0184L17.0687 32.3662V32.6033L16.7133 32.9518V33.4797L17.4241 33.8749L18.1349 33.4797V30.0213C18.5751 29.8573 18.9428 29.5473 19.1741 29.1452C19.4055 28.743 19.4859 28.2741 19.4015 27.8199C19.317 27.3656 19.073 26.9547 18.7117 26.6585C18.3505 26.3624 17.8949 26.1996 17.4241 26.1985ZM17.661 33.0561C17.661 33.0869 17.6486 33.1165 17.6263 33.1383C17.6041 33.1601 17.574 33.1723 17.5426 33.1723C17.5111 33.1723 17.481 33.1601 17.4588 33.1383C17.4366 33.1165 17.4241 33.0869 17.4241 33.0561V30.1501C17.5033 30.1499 17.5825 30.1449 17.661 30.1351V33.0561ZM17.4241 27.8258C17.3304 27.8258 17.2388 27.7985 17.1608 27.7474C17.0829 27.6964 17.0222 27.6238 16.9863 27.5389C16.9504 27.454 16.941 27.3605 16.9593 27.2704C16.9776 27.1802 17.0227 27.0974 17.089 27.0325C17.1553 26.9675 17.2397 26.9232 17.3316 26.9053C17.4236 26.8873 17.5189 26.8965 17.6054 26.9317C17.692 26.9669 17.766 27.0265 17.8181 27.1029C17.8702 27.1793 17.898 27.2691 17.898 27.3611C17.898 27.4843 17.8481 27.6025 17.7592 27.6897C17.6703 27.7768 17.5498 27.8258 17.4241 27.8258Z" fill="white"/>
</svg>
