<svg width="278" height="640" viewBox="0 0 278 640" fill="none" xmlns="http://www.w3.org/2000/svg">
<g filter="url(#filter0_d)">
<path d="M110.416 31.8712V57.0077C110.415 58.2076 110.733 59.3863 111.337 60.4242C111.941 61.4621 112.81 62.3223 113.856 62.9174L136.029 75.543C137.061 76.1305 138.228 76.4395 139.416 76.4395C140.604 76.4395 141.771 76.1305 142.803 75.543L164.977 62.9174C166.023 62.322 166.891 61.4618 167.495 60.4239C168.099 59.386 168.417 58.2075 168.416 57.0077V31.8712C168.416 30.6717 168.098 29.4934 167.494 28.4557C166.891 27.4181 166.022 26.558 164.977 25.9626L142.803 13.336C141.771 12.7485 140.604 12.4395 139.416 12.4395C138.228 12.4395 137.061 12.7485 136.029 13.336L113.856 25.9626C112.81 26.5577 111.942 27.4177 111.338 28.4554C110.734 29.4931 110.416 30.6715 110.416 31.8712Z" fill="#00A88E"/>
</g>
<path fill-rule="evenodd" clip-rule="evenodd" d="M139.416 12.4395L111.416 28.4396V60.4393L139.416 76.4395L167.416 60.4393V28.4396L139.416 12.4395Z" fill="#00A88E"/>
<path fill-rule="evenodd" clip-rule="evenodd" d="M144.416 50.4395C144.416 49.3347 142.178 48.4395 139.416 48.4395C136.654 48.4395 134.416 49.3347 134.416 50.4395C134.416 51.5442 136.654 52.4395 139.416 52.4395C142.178 52.4395 144.416 51.5442 144.416 50.4395Z" fill="#4D4D4F"/>
<path fill-rule="evenodd" clip-rule="evenodd" d="M125.416 30.4395H153.416V28.4395H125.416V30.4395Z" fill="#4D4D4F"/>
<path fill-rule="evenodd" clip-rule="evenodd" d="M125.416 50.4395H153.416V30.4395H125.416V50.4395Z" fill="#6D6E71"/>
<path fill-rule="evenodd" clip-rule="evenodd" d="M127.416 48.4395H151.416V32.4395H127.416V48.4395Z" fill="#44ADE2"/>
<path fill-rule="evenodd" clip-rule="evenodd" d="M138.916 34.4395L134.416 37.0229V41.795C134.416 44.9391 138.916 46.4395 138.916 46.4395C138.916 46.4395 143.416 44.9391 143.416 41.795V37.0229L138.916 34.4395ZM138.916 35.9283L142.107 37.7607V41.795C142.107 43.4901 139.869 44.6403 138.916 45.0528C137.961 44.6397 135.725 43.4895 135.725 41.795V37.7607L138.916 35.9283Z" fill="#FFFFFE"/>
<path fill-rule="evenodd" clip-rule="evenodd" d="M141.416 60.4395H153.416V59.4395H141.416V60.4395Z" fill="#6D6E71"/>
<path fill-rule="evenodd" clip-rule="evenodd" d="M141.416 59.4395H153.416V54.4395H141.416V59.4395Z" fill="#4D4D4F"/>
<path fill-rule="evenodd" clip-rule="evenodd" d="M143.416 58.4395H151.416V55.4395H143.416V58.4395Z" fill="#A5CF4C"/>
<path fill-rule="evenodd" clip-rule="evenodd" d="M125.416 60.4395H139.416V44.4395H125.416V60.4395Z" fill="#636463"/>
<path fill-rule="evenodd" clip-rule="evenodd" d="M125.416 44.4395H139.416V43.4395H125.416V44.4395Z" fill="#414241"/>
<path fill-rule="evenodd" clip-rule="evenodd" d="M126.416 59.4395H138.416V45.4395H126.416V59.4395Z" fill="#F04E45"/>
<path fill-rule="evenodd" clip-rule="evenodd" d="M132.416 48.4395L129.416 50.1618V53.3434C129.416 55.4389 132.416 56.4395 132.416 56.4395C132.416 56.4395 135.416 55.4389 135.416 53.3434V50.1618L132.416 48.4395ZM132.416 49.415L134.559 50.6449V53.3434C134.559 54.4853 133.05 55.2571 132.416 55.5316C131.78 55.2565 130.274 54.4848 130.274 53.3434V50.6449L132.416 49.415Z" fill="#FFFFFE"/>
<path d="M110.916 32.5075V56.8575C110.916 59.2275 112.186 61.4075 114.236 62.5875L135.646 74.8175C137.676 75.9775 140.156 75.9775 142.186 74.8175L163.596 62.5875C165.646 61.4175 166.916 59.2275 166.916 56.8575V32.5075C166.916 30.1375 165.646 27.9575 163.596 26.7875L142.186 14.5575C140.156 13.3975 137.676 13.3975 135.646 14.5575L114.236 26.7875C112.186 27.9575 110.916 30.1475 110.916 32.5075Z" fill="#00A88E"/>
<path d="M152.916 28.6875H124.916V29.6875H152.916V28.6875Z" fill="#4D4D4F"/>
<path d="M143.916 50.6875C143.916 49.5875 141.716 48.6875 138.916 48.6875C136.116 48.6875 133.916 49.5875 133.916 50.6875C133.916 51.7875 136.116 52.6875 138.916 52.6875C141.716 52.6875 143.916 51.7875 143.916 50.6875Z" fill="#4D4D4F"/>
<path d="M152.916 29.6875H124.916V50.6875H152.916V29.6875Z" fill="#6D6E71"/>
<path d="M150.916 31.6875H126.916V48.6875H150.916V31.6875Z" fill="#00B6B5"/>
<path d="M138.916 34.1875L134.416 36.6875V41.6875C134.416 44.7875 138.916 46.2875 138.916 46.2875C138.916 46.2875 143.416 44.7875 143.416 41.6875V36.6875L138.916 34.1875ZM142.416 41.6875C142.416 43.5875 139.816 44.7875 138.916 45.1875C138.016 44.7875 135.416 43.5875 135.416 41.6875V37.2875L138.916 35.2875L142.416 37.2875V41.6875Z" fill="white"/>
<path d="M145.916 53.6875H124.916V59.6875H145.916V53.6875Z" fill="#4D4D4F"/>
<path d="M145.916 59.6875H124.916V60.6875H145.916V59.6875Z" fill="#6D6E71"/>
<path d="M152.916 58.4875C152.916 59.6875 151.816 60.6875 150.416 60.6875C149.016 60.6875 147.916 59.6875 147.916 58.4875V55.8875C147.916 54.6875 149.016 53.6875 150.416 53.6875C151.816 53.6875 152.916 54.6875 152.916 55.8875V58.4875Z" fill="#4D4D4F"/>
<path d="M150.416 59.9875C149.016 59.9875 147.916 58.9875 147.916 57.7875V58.4875C147.916 59.6875 149.016 60.6875 150.416 60.6875C151.816 60.6875 152.916 59.6875 152.916 58.4875V57.7875C152.916 58.9875 151.816 59.9875 150.416 59.9875Z" fill="#6D6E71"/>
<g filter="url(#filter1_d)">
<path fill-rule="evenodd" clip-rule="evenodd" d="M102.416 40.4395V63.1893C102.416 66.7192 104.094 69.9661 106.803 71.7087L135.095 89.9239C137.777 91.6516 141.055 91.6516 143.737 89.9239L172.029 71.7236C174.738 69.981 176.416 66.7192 176.416 63.2042V40.4395H261.416C263.625 40.4395 265.416 42.2303 265.416 44.4395V619.59C265.416 621.799 263.625 623.59 261.416 623.59H16.416C14.2069 623.59 12.416 621.799 12.416 619.59V44.4395C12.416 42.2303 14.2069 40.4395 16.416 40.4395H102.416Z" fill="white"/>
</g>
<defs>
<filter id="filter0_d" x="90.416" y="0.439453" width="98" height="104" filterUnits="userSpaceOnUse" color-interpolation-filters="sRGB">
<feFlood flood-opacity="0" result="BackgroundImageFix"/>
<feColorMatrix in="SourceAlpha" type="matrix" values="0 0 0 0 0 0 0 0 0 0 0 0 0 0 0 0 0 0 127 0"/>
<feOffset dy="8"/>
<feGaussianBlur stdDeviation="10"/>
<feColorMatrix type="matrix" values="0 0 0 0 0 0 0 0 0 0.658824 0 0 0 0 0.556863 0 0 0 0.24 0"/>
<feBlend mode="normal" in2="BackgroundImageFix" result="effect1_dropShadow"/>
<feBlend mode="normal" in="SourceGraphic" in2="effect1_dropShadow" result="shape"/>
</filter>
<filter id="filter1_d" x="0.416016" y="32.4395" width="277" height="607.151" filterUnits="userSpaceOnUse" color-interpolation-filters="sRGB">
<feFlood flood-opacity="0" result="BackgroundImageFix"/>
<feColorMatrix in="SourceAlpha" type="matrix" values="0 0 0 0 0 0 0 0 0 0 0 0 0 0 0 0 0 0 127 0"/>
<feOffset dy="4"/>
<feGaussianBlur stdDeviation="6"/>
<feColorMatrix type="matrix" values="0 0 0 0 0.113725 0 0 0 0 0.113725 0 0 0 0 0.105882 0 0 0 0.12 0"/>
<feBlend mode="normal" in2="BackgroundImageFix" result="effect1_dropShadow"/>
<feBlend mode="normal" in="SourceGraphic" in2="effect1_dropShadow" result="shape"/>
</filter>
</defs>
</svg>
