<svg width="278" height="640" viewBox="0 0 278 640" fill="none" xmlns="http://www.w3.org/2000/svg">
<g filter="url(#filter0_d)">
<path d="M110.137 31.8712V57.0077C110.136 58.2076 110.454 59.3863 111.058 60.4242C111.662 61.4621 112.531 62.3223 113.576 62.9174L135.75 75.543C136.781 76.1305 137.949 76.4395 139.137 76.4395C140.325 76.4395 141.492 76.1305 142.524 75.543L164.698 62.9174C165.743 62.322 166.612 61.4618 167.216 60.4239C167.819 59.386 168.137 58.2075 168.137 57.0077V31.8712C168.137 30.6717 167.819 29.4934 167.215 28.4557C166.611 27.4181 165.743 26.558 164.698 25.9626L142.524 13.336C141.492 12.7485 140.325 12.4395 139.137 12.4395C137.949 12.4395 136.781 12.7485 135.75 13.336L113.576 25.9626C112.531 26.5577 111.662 27.4177 111.058 28.4554C110.454 29.4931 110.136 30.6715 110.137 31.8712Z" fill="#00A88E"/>
</g>
<path d="M111.137 32.5075V56.8575C111.137 59.2275 112.407 61.4075 114.457 62.5875L135.867 74.8175C137.897 75.9775 140.377 75.9775 142.407 74.8175L163.817 62.5875C165.867 61.4175 167.137 59.2275 167.137 56.8575V32.5075C167.137 30.1375 165.867 27.9575 163.817 26.7875L142.407 14.5575C140.377 13.3975 137.897 13.3975 135.867 14.5575L114.457 26.7875C112.407 27.9575 111.137 30.1475 111.137 32.5075Z" fill="#00A88E"/>
<path d="M153.137 29.6875H125.137V49.6875H153.137V29.6875Z" fill="#6D6E71"/>
<path d="M151.137 31.6875H127.137V47.6875H151.137V31.6875Z" fill="#A7A9AC"/>
<path d="M153.137 28.6875H125.137V29.6875H153.137V28.6875Z" fill="#4D4D4F"/>
<path d="M153.137 49.6875H125.137V59.6875H153.137V49.6875Z" fill="#BCBEC0"/>
<path d="M151.137 50.6875H127.137V54.6875H151.137V50.6875Z" fill="#58595B"/>
<path d="M143.137 55.6875H135.137V58.6875H143.137V55.6875Z" fill="#9D9FA2"/>
<path d="M153.137 59.6875H125.137V60.6875H153.137V59.6875Z" fill="white"/>
<path d="M139.137 33.6875L134.637 36.1875V41.1875C134.637 44.2875 139.137 45.7875 139.137 45.7875C139.137 45.7875 143.637 44.2875 143.637 41.1875V36.1875L139.137 33.6875ZM142.637 41.1875C142.637 43.0875 140.037 44.2875 139.137 44.6875C138.237 44.2875 135.637 43.0875 135.637 41.1875V36.7875L139.137 34.7875L142.637 36.7875V41.1875Z" fill="white"/>
<g filter="url(#filter1_d)">
<path fill-rule="evenodd" clip-rule="evenodd" d="M102.137 40.4395V63.2051C102.137 66.7374 103.815 69.9866 106.524 71.7304L134.816 89.9585C137.498 91.6874 140.775 91.6874 143.458 89.9585L171.75 71.7453C174.458 70.0015 176.137 66.7374 176.137 63.22V40.4395H261.137C263.346 40.4395 265.137 42.2303 265.137 44.4395V620C265.137 622.209 263.346 624 261.137 624H16.1367C13.9276 624 12.1367 622.209 12.1367 620V44.4395C12.1367 42.2303 13.9276 40.4395 16.1367 40.4395H102.137Z" fill="white"/>
</g>
<defs>
<filter id="filter0_d" x="90.1367" y="0.439453" width="98" height="104" filterUnits="userSpaceOnUse" color-interpolation-filters="sRGB">
<feFlood flood-opacity="0" result="BackgroundImageFix"/>
<feColorMatrix in="SourceAlpha" type="matrix" values="0 0 0 0 0 0 0 0 0 0 0 0 0 0 0 0 0 0 127 0"/>
<feOffset dy="8"/>
<feGaussianBlur stdDeviation="10"/>
<feColorMatrix type="matrix" values="0 0 0 0 0 0 0 0 0 0.658824 0 0 0 0 0.556863 0 0 0 0.24 0"/>
<feBlend mode="normal" in2="BackgroundImageFix" result="effect1_dropShadow"/>
<feBlend mode="normal" in="SourceGraphic" in2="effect1_dropShadow" result="shape"/>
</filter>
<filter id="filter1_d" x="0.136719" y="32.4395" width="277" height="607.561" filterUnits="userSpaceOnUse" color-interpolation-filters="sRGB">
<feFlood flood-opacity="0" result="BackgroundImageFix"/>
<feColorMatrix in="SourceAlpha" type="matrix" values="0 0 0 0 0 0 0 0 0 0 0 0 0 0 0 0 0 0 127 0"/>
<feOffset dy="4"/>
<feGaussianBlur stdDeviation="6"/>
<feColorMatrix type="matrix" values="0 0 0 0 0.113725 0 0 0 0 0.113725 0 0 0 0 0.105882 0 0 0 0.12 0"/>
<feBlend mode="normal" in2="BackgroundImageFix" result="effect1_dropShadow"/>
<feBlend mode="normal" in="SourceGraphic" in2="effect1_dropShadow" result="shape"/>
</filter>
</defs>
</svg>
