<svg width="278" height="640" viewBox="0 0 278 640" fill="none" xmlns="http://www.w3.org/2000/svg">
<g filter="url(#filter0_d)">
<path d="M110.857 31.8712V57.0077C110.857 58.2076 111.175 59.3863 111.779 60.4242C112.383 61.4621 113.252 62.3223 114.297 62.9174L136.471 75.543C137.502 76.1305 138.669 76.4395 139.857 76.4395C141.045 76.4395 142.213 76.1305 143.244 75.543L165.419 62.9174C166.464 62.322 167.332 61.4618 167.936 60.4239C168.54 59.386 168.858 58.2075 168.857 57.0077V31.8712C168.858 30.6717 168.54 29.4934 167.936 28.4557C167.332 27.4181 166.464 26.558 165.419 25.9626L143.244 13.336C142.213 12.7485 141.045 12.4395 139.857 12.4395C138.669 12.4395 137.502 12.7485 136.471 13.336L114.297 25.9626C113.252 26.5577 112.383 27.4177 111.779 28.4554C111.175 29.4931 110.857 30.6715 110.857 31.8712Z" fill="#00A88E"/>
</g>
<path fill-rule="evenodd" clip-rule="evenodd" d="M139.858 12.4395L111.857 28.4396V60.4393L139.858 76.4395L167.857 60.4393V28.4396L139.858 12.4395Z" fill="#00A88E"/>
<path fill-rule="evenodd" clip-rule="evenodd" d="M144.857 50.4395C144.857 49.3347 142.619 48.4395 139.857 48.4395C137.096 48.4395 134.857 49.3347 134.857 50.4395C134.857 51.5442 137.096 52.4395 139.857 52.4395C142.619 52.4395 144.857 51.5442 144.857 50.4395Z" fill="#4D4D4F"/>
<path fill-rule="evenodd" clip-rule="evenodd" d="M125.857 30.4395H153.857V28.4395H125.857V30.4395Z" fill="#4D4D4F"/>
<path fill-rule="evenodd" clip-rule="evenodd" d="M125.857 50.4395H153.857V30.4395H125.857V50.4395Z" fill="#6D6E71"/>
<path fill-rule="evenodd" clip-rule="evenodd" d="M127.857 48.4395H151.857V32.4395H127.857V48.4395Z" fill="#44ADE2"/>
<path fill-rule="evenodd" clip-rule="evenodd" d="M141.857 60.4395H153.857V59.4395H141.857V60.4395Z" fill="#6D6E71"/>
<path fill-rule="evenodd" clip-rule="evenodd" d="M141.857 59.4395H153.857V54.4395H141.857V59.4395Z" fill="#4D4D4F"/>
<path fill-rule="evenodd" clip-rule="evenodd" d="M143.857 58.4395H151.857V55.4395H143.857V58.4395Z" fill="#A5CF4C"/>
<path fill-rule="evenodd" clip-rule="evenodd" d="M139.357 34.4395L134.857 37.0229V41.795C134.857 44.9391 139.357 46.4395 139.357 46.4395C139.357 46.4395 143.857 44.9391 143.857 41.795V37.0229L139.357 34.4395ZM139.357 35.9283L142.549 37.7607V41.795C142.549 43.4901 140.31 44.6403 139.357 45.0528C138.403 44.6397 136.166 43.4895 136.166 41.795V37.7607L139.357 35.9283Z" fill="#FFFFFE"/>
<path fill-rule="evenodd" clip-rule="evenodd" d="M125.857 60.4395H139.857V44.4395H125.857V60.4395Z" fill="#636463"/>
<path fill-rule="evenodd" clip-rule="evenodd" d="M125.857 44.4395H139.857V43.4395H125.857V44.4395Z" fill="#414241"/>
<path fill-rule="evenodd" clip-rule="evenodd" d="M126.857 59.4395H138.857V45.4395H126.857V59.4395Z" fill="#FDB924"/>
<path fill-rule="evenodd" clip-rule="evenodd" d="M133.258 54.9657C133.258 55.0819 133.168 55.1761 133.058 55.1761C132.947 55.1761 132.857 55.0819 132.857 54.9657V52.6498C132.995 52.6498 133.128 52.6349 133.258 52.6072V54.9657ZM132.857 49.281C133.078 49.281 133.258 49.4703 133.258 49.7028C133.258 49.9354 133.078 50.1236 132.857 50.1236C132.637 50.1236 132.458 49.9354 132.458 49.7028C132.458 49.4703 132.637 49.281 132.857 49.281ZM134.857 50.5444C134.857 49.3812 133.962 48.4395 132.857 48.4395C131.753 48.4395 130.857 49.3812 130.857 50.5444C130.857 51.408 131.352 52.1482 132.058 52.4732V53.0695L132.458 53.4908L132.058 53.9116V54.3323L132.458 54.7536L132.058 55.1755L132.458 55.5957V55.5979H132.459L133.258 56.4395L133.656 55.5979H133.658V52.4732C134.364 52.1482 134.857 51.408 134.857 50.5444Z" fill="#FFFFFE"/>
<g filter="url(#filter1_d)">
<path fill-rule="evenodd" clip-rule="evenodd" d="M102.857 40.4395V63.2053C102.857 66.7377 104.536 69.9868 107.245 71.7306L135.536 89.9587C138.219 91.6876 141.496 91.6876 144.178 89.9587L172.47 71.7455C175.179 70.0017 176.857 66.7377 176.857 63.2202V40.4395H261.857C264.067 40.4395 265.857 42.2303 265.857 44.4395V620C265.857 622.209 264.067 624 261.857 624H16.8574C14.6483 624 12.8574 622.209 12.8574 620V44.4395C12.8574 42.2303 14.6483 40.4395 16.8574 40.4395H102.857Z" fill="white"/>
</g>
<defs>
<filter id="filter0_d" x="90.8574" y="0.439453" width="98" height="104" filterUnits="userSpaceOnUse" color-interpolation-filters="sRGB">
<feFlood flood-opacity="0" result="BackgroundImageFix"/>
<feColorMatrix in="SourceAlpha" type="matrix" values="0 0 0 0 0 0 0 0 0 0 0 0 0 0 0 0 0 0 127 0"/>
<feOffset dy="8"/>
<feGaussianBlur stdDeviation="10"/>
<feColorMatrix type="matrix" values="0 0 0 0 0 0 0 0 0 0.658824 0 0 0 0 0.556863 0 0 0 0.24 0"/>
<feBlend mode="normal" in2="BackgroundImageFix" result="effect1_dropShadow"/>
<feBlend mode="normal" in="SourceGraphic" in2="effect1_dropShadow" result="shape"/>
</filter>
<filter id="filter1_d" x="0.857422" y="32.4395" width="277" height="607.56" filterUnits="userSpaceOnUse" color-interpolation-filters="sRGB">
<feFlood flood-opacity="0" result="BackgroundImageFix"/>
<feColorMatrix in="SourceAlpha" type="matrix" values="0 0 0 0 0 0 0 0 0 0 0 0 0 0 0 0 0 0 127 0"/>
<feOffset dy="4"/>
<feGaussianBlur stdDeviation="6"/>
<feColorMatrix type="matrix" values="0 0 0 0 0.113725 0 0 0 0 0.113725 0 0 0 0 0.105882 0 0 0 0.12 0"/>
<feBlend mode="normal" in2="BackgroundImageFix" result="effect1_dropShadow"/>
<feBlend mode="normal" in="SourceGraphic" in2="effect1_dropShadow" result="shape"/>
</filter>
</defs>
</svg>
