<svg width="278" height="640" viewBox="0 0 278 640" fill="none" xmlns="http://www.w3.org/2000/svg">
<g filter="url(#filter0_d)">
<path d="M110.578 31.8712V57.0077C110.577 58.2076 110.895 59.3863 111.499 60.4242C112.104 61.4621 112.972 62.3223 114.018 62.9174L136.191 75.543C137.223 76.1305 138.39 76.4395 139.578 76.4395C140.766 76.4395 141.934 76.1305 142.965 75.543L165.14 62.9174C166.185 62.322 167.053 61.4618 167.657 60.4239C168.261 59.386 168.579 58.2075 168.578 57.0077V31.8712C168.578 30.6717 168.26 29.4934 167.657 28.4557C167.053 27.4181 166.184 26.558 165.14 25.9626L142.965 13.336C141.934 12.7485 140.766 12.4395 139.578 12.4395C138.39 12.4395 137.223 12.7485 136.191 13.336L114.018 25.9626C112.973 26.5577 112.104 27.4177 111.5 28.4554C110.896 29.4931 110.578 30.6715 110.578 31.8712Z" fill="#00A88E"/>
</g>
<path fill-rule="evenodd" clip-rule="evenodd" d="M139.578 12.4395L111.578 28.4396V60.4393L139.578 76.4395L167.578 60.4393V28.4396L139.578 12.4395Z" fill="#00A88E"/>
<path fill-rule="evenodd" clip-rule="evenodd" d="M144.578 50.4395C144.578 49.3347 142.34 48.4395 139.578 48.4395C136.816 48.4395 134.578 49.3347 134.578 50.4395C134.578 51.5442 136.816 52.4395 139.578 52.4395C142.34 52.4395 144.578 51.5442 144.578 50.4395Z" fill="#4D4D4F"/>
<path fill-rule="evenodd" clip-rule="evenodd" d="M125.578 30.4395H153.578V28.4395H125.578V30.4395Z" fill="#4D4D4F"/>
<path fill-rule="evenodd" clip-rule="evenodd" d="M125.578 50.4395H153.578V30.4395H125.578V50.4395Z" fill="#6D6E71"/>
<path fill-rule="evenodd" clip-rule="evenodd" d="M127.578 48.4395H151.578V32.4395H127.578V48.4395Z" fill="#44ADE2"/>
<path fill-rule="evenodd" clip-rule="evenodd" d="M141.578 60.4395H153.578V59.4395H141.578V60.4395Z" fill="#6D6E71"/>
<path fill-rule="evenodd" clip-rule="evenodd" d="M141.578 59.4395H153.578V54.4395H141.578V59.4395Z" fill="#4D4D4F"/>
<path fill-rule="evenodd" clip-rule="evenodd" d="M143.578 58.4395H151.578V55.4395H143.578V58.4395Z" fill="#A5CF4C"/>
<path fill-rule="evenodd" clip-rule="evenodd" d="M139.078 34.4395L134.578 37.0229V41.795C134.578 44.9391 139.078 46.4395 139.078 46.4395C139.078 46.4395 143.578 44.9391 143.578 41.795V37.0229L139.078 34.4395ZM139.078 35.9283L142.269 37.7607V41.795C142.269 43.4901 140.031 44.6403 139.078 45.0528C138.123 44.6397 135.887 43.4895 135.887 41.795V37.7607L139.078 35.9283Z" fill="#FFFFFE"/>
<path fill-rule="evenodd" clip-rule="evenodd" d="M125.578 60.4395H139.578V44.4395H125.578V60.4395Z" fill="#636463"/>
<path fill-rule="evenodd" clip-rule="evenodd" d="M125.578 44.4395H139.578V43.4395H125.578V44.4395Z" fill="#414241"/>
<path fill-rule="evenodd" clip-rule="evenodd" d="M126.578 59.4395H138.578V45.4395H126.578V59.4395Z" fill="#FDB924"/>
<path fill-rule="evenodd" clip-rule="evenodd" d="M132.978 54.9657C132.978 55.0819 132.889 55.1761 132.778 55.1761C132.668 55.1761 132.578 55.0819 132.578 54.9657V52.6498C132.715 52.6498 132.849 52.6349 132.978 52.6072V54.9657ZM132.578 49.281C132.799 49.281 132.978 49.4703 132.978 49.7028C132.978 49.9354 132.799 50.1236 132.578 50.1236C132.357 50.1236 132.178 49.9354 132.178 49.7028C132.178 49.4703 132.357 49.281 132.578 49.281ZM134.578 50.5444C134.578 49.3812 133.683 48.4395 132.578 48.4395C131.474 48.4395 130.578 49.3812 130.578 50.5444C130.578 51.408 131.072 52.1482 131.778 52.4732V53.0695L132.178 53.4908L131.778 53.9116V54.3323L132.178 54.7536L131.778 55.1755L132.178 55.5957V55.5979H132.18L132.978 56.4395L133.377 55.5979H133.379V52.4732C134.084 52.1482 134.578 51.408 134.578 50.5444Z" fill="#FFFFFE"/>
<path fill-rule="evenodd" clip-rule="evenodd" d="M139.578 12.4395L111.578 28.4395V60.4395L139.578 76.4395L167.578 60.4395V28.4395L139.578 12.4395Z" fill="#00A88E"/>
<path fill-rule="evenodd" clip-rule="evenodd" d="M126.578 49.4395C126.578 57.2655 136.684 61.7775 139.577 62.9395V26.4395L126.578 33.9485V48.8875" fill="#B455A0"/>
<path fill-rule="evenodd" clip-rule="evenodd" d="M124.578 33.4395L139.577 24.4395V23.4395L124.578 32.1535V33.4395Z" fill="#008E77"/>
<path fill-rule="evenodd" clip-rule="evenodd" d="M126.578 34.4525L139.577 26.9435V24.4395L124.578 33.1525V49.3205C124.579 60.0375 139.538 65.1575 139.577 65.1715V63.0015C136.684 61.8395 126.578 57.2175 126.578 49.3915V34.4525Z" fill="#FFFFFE"/>
<path fill-rule="evenodd" clip-rule="evenodd" d="M139.578 26.4395V62.9395C142.471 61.7775 152.578 57.2655 152.578 49.4395V33.8795L139.578 26.4395Z" fill="#A23293"/>
<path fill-rule="evenodd" clip-rule="evenodd" d="M154.578 33.4395L139.578 24.4395V23.4395L154.578 32.1535V33.4395Z" fill="#008E77"/>
<path fill-rule="evenodd" clip-rule="evenodd" d="M152.578 34.3835L139.578 26.9435V24.4395L154.578 33.1525V49.3205C154.577 60.0375 139.617 65.1575 139.578 65.1715V63.0015C142.471 61.8395 152.578 57.2175 152.578 49.3215V34.3835Z" fill="#E5E6E3"/>
<path fill-rule="evenodd" clip-rule="evenodd" d="M146.521 41.5852C147.367 41.1272 147.948 40.2442 147.948 39.2152C147.948 37.7202 146.732 36.5082 145.232 36.5082C144.629 36.5082 144.076 36.7122 143.625 37.0442C142.653 36.0852 141.16 35.4662 139.632 35.4402C137.182 35.3972 135.124 37.1372 134.667 39.4522L134.581 39.4462C131.857 39.4082 129.617 41.5792 129.579 44.2942C129.541 47.0122 131.851 49.4382 134.77 49.4382L145.195 49.4392H145.525C147.745 49.4392 149.546 47.7112 149.578 45.5112C149.604 43.6152 148.296 42.0112 146.521 41.5852Z" fill="#6A1F5B"/>
<path fill-rule="evenodd" clip-rule="evenodd" d="M146.521 42.5852C147.367 42.1272 147.948 41.2442 147.948 40.2162C147.948 38.7202 146.732 37.5082 145.232 37.5082C144.629 37.5082 144.076 37.7122 143.625 38.0442C142.653 37.0852 141.16 36.4662 139.632 36.4402C137.182 36.3972 135.124 38.1372 134.667 40.4522L134.581 40.4462C131.857 40.4082 129.617 42.5802 129.579 45.2952C129.541 48.0122 131.851 50.4392 134.77 50.4392H145.525C147.745 50.4392 149.546 48.7122 149.578 46.5122C149.604 44.6152 148.296 43.0122 146.521 42.5852Z" fill="#FFFFFE"/>
<path fill-rule="evenodd" clip-rule="evenodd" d="M133.578 44.6265L135.046 43.1585L137.552 45.6645L144.777 38.4395L146.244 39.9085L137.553 48.6005L133.578 44.6265Z" fill="#A23293"/>
<g filter="url(#filter1_d)">
<path fill-rule="evenodd" clip-rule="evenodd" d="M102.578 40.4395V63.2053C102.578 66.7377 104.256 69.9868 106.965 71.7306L135.257 89.9587C137.94 91.6876 141.217 91.6876 143.899 89.9587L172.191 71.7455C174.9 70.0017 176.578 66.7377 176.578 63.2202V40.4395H261.578C263.787 40.4395 265.578 42.2303 265.578 44.4395V620C265.578 622.209 263.787 624 261.578 624H16.5781C14.369 624 12.5781 622.209 12.5781 620V44.4395C12.5781 42.2303 14.369 40.4395 16.5781 40.4395H102.578Z" fill="white"/>
</g>
<defs>
<filter id="filter0_d" x="90.5781" y="0.439453" width="98" height="104" filterUnits="userSpaceOnUse" color-interpolation-filters="sRGB">
<feFlood flood-opacity="0" result="BackgroundImageFix"/>
<feColorMatrix in="SourceAlpha" type="matrix" values="0 0 0 0 0 0 0 0 0 0 0 0 0 0 0 0 0 0 127 0"/>
<feOffset dy="8"/>
<feGaussianBlur stdDeviation="10"/>
<feColorMatrix type="matrix" values="0 0 0 0 0 0 0 0 0 0.658824 0 0 0 0 0.556863 0 0 0 0.24 0"/>
<feBlend mode="normal" in2="BackgroundImageFix" result="effect1_dropShadow"/>
<feBlend mode="normal" in="SourceGraphic" in2="effect1_dropShadow" result="shape"/>
</filter>
<filter id="filter1_d" x="0.578125" y="32.4395" width="277" height="607.561" filterUnits="userSpaceOnUse" color-interpolation-filters="sRGB">
<feFlood flood-opacity="0" result="BackgroundImageFix"/>
<feColorMatrix in="SourceAlpha" type="matrix" values="0 0 0 0 0 0 0 0 0 0 0 0 0 0 0 0 0 0 127 0"/>
<feOffset dy="4"/>
<feGaussianBlur stdDeviation="6"/>
<feColorMatrix type="matrix" values="0 0 0 0 0.113725 0 0 0 0 0.113725 0 0 0 0 0.105882 0 0 0 0.12 0"/>
<feBlend mode="normal" in2="BackgroundImageFix" result="effect1_dropShadow"/>
<feBlend mode="normal" in="SourceGraphic" in2="effect1_dropShadow" result="shape"/>
</filter>
</defs>
</svg>
