<svg width="278" height="642" viewBox="0 0 278 642" fill="none" xmlns="http://www.w3.org/2000/svg">
<g filter="url(#filter0_d)">
<path d="M110.721 32.2597V57.3962C110.72 58.5961 111.038 59.7748 111.642 60.8127C112.246 61.8506 113.115 62.7107 114.16 63.3058L136.334 75.9314C137.365 76.5189 138.533 76.8279 139.721 76.8279C140.909 76.8279 142.076 76.5189 143.107 75.9314L165.282 63.3058C166.327 62.7104 167.196 61.8502 167.8 60.8123C168.403 59.7745 168.721 58.5959 168.721 57.3962V32.2597C168.721 31.0601 168.403 29.8818 167.799 28.8442C167.195 27.8065 166.327 26.9464 165.282 26.351L143.107 13.7244C142.076 13.1369 140.909 12.8279 139.721 12.8279C138.533 12.8279 137.365 13.1369 136.334 13.7244L114.16 26.351C113.115 26.9461 112.246 27.8061 111.642 28.8438C111.038 29.8815 110.72 31.06 110.721 32.2597Z" fill="#00A88E"/>
</g>
<path fill-rule="evenodd" clip-rule="evenodd" d="M139.721 12.8279L111.721 28.828V60.8277L139.721 76.8279L167.721 60.8277V28.828L139.721 12.8279Z" fill="#00A88E"/>
<path fill-rule="evenodd" clip-rule="evenodd" d="M144.721 50.8279C144.721 49.7232 142.482 48.8279 139.721 48.8279C136.959 48.8279 134.721 49.7232 134.721 50.8279C134.721 51.9326 136.959 52.8279 139.721 52.8279C142.482 52.8279 144.721 51.9326 144.721 50.8279Z" fill="#4D4D4F"/>
<path fill-rule="evenodd" clip-rule="evenodd" d="M125.721 30.8279H153.721V28.8279H125.721V30.8279Z" fill="#4D4D4F"/>
<path fill-rule="evenodd" clip-rule="evenodd" d="M125.721 50.8279H153.721V30.8279H125.721V50.8279Z" fill="#6D6E71"/>
<path fill-rule="evenodd" clip-rule="evenodd" d="M127.721 48.8279H151.721V32.8279H127.721V48.8279Z" fill="#44ADE2"/>
<path fill-rule="evenodd" clip-rule="evenodd" d="M141.721 60.8279H153.721V59.8279H141.721V60.8279Z" fill="#6D6E71"/>
<path fill-rule="evenodd" clip-rule="evenodd" d="M141.721 59.8279H153.721V54.8279H141.721V59.8279Z" fill="#4D4D4F"/>
<path fill-rule="evenodd" clip-rule="evenodd" d="M143.721 58.8279H151.721V55.8279H143.721V58.8279Z" fill="#A5CF4C"/>
<path fill-rule="evenodd" clip-rule="evenodd" d="M139.221 34.8279L134.721 37.4114V42.1834C134.721 45.3275 139.221 46.8279 139.221 46.8279C139.221 46.8279 143.721 45.3275 143.721 42.1834V37.4114L139.221 34.8279ZM139.221 36.3168L142.412 38.1492V42.1834C142.412 43.8785 140.174 45.0288 139.221 45.4412C138.266 45.0282 136.029 43.8779 136.029 42.1834V38.1492L139.221 36.3168Z" fill="#FFFFFE"/>
<path fill-rule="evenodd" clip-rule="evenodd" d="M125.721 60.8279H139.721V44.8279H125.721V60.8279Z" fill="#636463"/>
<path fill-rule="evenodd" clip-rule="evenodd" d="M125.721 44.8279H139.721V43.8279H125.721V44.8279Z" fill="#414241"/>
<path fill-rule="evenodd" clip-rule="evenodd" d="M126.721 59.8279H138.721V45.8279H126.721V59.8279Z" fill="#FDB924"/>
<path fill-rule="evenodd" clip-rule="evenodd" d="M133.121 55.3541C133.121 55.4704 133.032 55.5645 132.921 55.5645C132.811 55.5645 132.721 55.4704 132.721 55.3541V53.0383C132.858 53.0383 132.992 53.0233 133.121 52.9956V55.3541ZM132.721 49.6694C132.942 49.6694 133.121 49.8587 133.121 50.0913C133.121 50.3238 132.942 50.512 132.721 50.512C132.5 50.512 132.321 50.3238 132.321 50.0913C132.321 49.8587 132.5 49.6694 132.721 49.6694ZM134.721 50.9328C134.721 49.7696 133.826 48.8279 132.721 48.8279C131.616 48.8279 130.721 49.7696 130.721 50.9328C130.721 51.7965 131.215 52.5367 131.921 52.8617V53.4579L132.321 53.8792L131.921 54.3V54.7208L132.321 55.1421L131.921 55.5639L132.321 55.9841V55.9864H132.323L133.121 56.8279L133.52 55.9864H133.521V52.8617C134.227 52.5367 134.721 51.7965 134.721 50.9328Z" fill="#FFFFFE"/>
<path fill-rule="evenodd" clip-rule="evenodd" d="M139.721 12.8279L111.721 28.8279V60.8279L139.721 76.8279L167.721 60.8279V28.8279L139.721 12.8279Z" fill="#00A88E"/>
<path fill-rule="evenodd" clip-rule="evenodd" d="M126.721 49.8279C126.721 57.6539 136.827 62.1659 139.72 63.3279V26.8279L126.721 34.3369V49.2759" fill="#B455A0"/>
<path fill-rule="evenodd" clip-rule="evenodd" d="M124.721 33.8279L139.72 24.8279V23.8279L124.721 32.5419V33.8279Z" fill="#008E77"/>
<path fill-rule="evenodd" clip-rule="evenodd" d="M126.721 34.8409L139.72 27.3319V24.8279L124.721 33.5409V49.7089C124.722 60.4259 139.681 65.5459 139.72 65.5599V63.3899C136.827 62.2279 126.721 57.6059 126.721 49.7799V34.8409Z" fill="#FFFFFE"/>
<path fill-rule="evenodd" clip-rule="evenodd" d="M139.721 26.8279V63.3279C142.614 62.1659 152.721 57.6539 152.721 49.8279V34.2679L139.721 26.8279Z" fill="#A23293"/>
<path fill-rule="evenodd" clip-rule="evenodd" d="M154.721 33.8279L139.721 24.8279V23.8279L154.721 32.5419V33.8279Z" fill="#008E77"/>
<path fill-rule="evenodd" clip-rule="evenodd" d="M152.721 34.7719L139.721 27.3319V24.8279L154.721 33.5409V49.7089C154.72 60.4259 139.76 65.5459 139.721 65.5599V63.3899C142.614 62.2279 152.721 57.6059 152.721 49.7099V34.7719Z" fill="#E5E6E3"/>
<path fill-rule="evenodd" clip-rule="evenodd" d="M146.663 41.9737C147.509 41.5157 148.09 40.6327 148.09 39.6037C148.09 38.1087 146.874 36.8967 145.374 36.8967C144.771 36.8967 144.218 37.1007 143.767 37.4327C142.795 36.4737 141.302 35.8547 139.774 35.8287C137.324 35.7857 135.266 37.5257 134.809 39.8407L134.723 39.8347C131.999 39.7967 129.759 41.9677 129.721 44.6827C129.683 47.4007 131.993 49.8267 134.912 49.8267L145.337 49.8277H145.667C147.887 49.8277 149.688 48.0997 149.72 45.8997C149.746 44.0037 148.438 42.3997 146.663 41.9737Z" fill="#6A1F5B"/>
<path fill-rule="evenodd" clip-rule="evenodd" d="M146.663 42.9737C147.509 42.5157 148.09 41.6327 148.09 40.6047C148.09 39.1087 146.874 37.8967 145.374 37.8967C144.771 37.8967 144.218 38.1007 143.767 38.4327C142.795 37.4737 141.302 36.8547 139.774 36.8287C137.324 36.7857 135.266 38.5257 134.809 40.8407L134.723 40.8347C131.999 40.7967 129.759 42.9687 129.721 45.6837C129.683 48.4007 131.993 50.8277 134.912 50.8277H145.667C147.887 50.8277 149.688 49.1007 149.72 46.9007C149.746 45.0037 148.438 43.4007 146.663 42.9737Z" fill="#FFFFFE"/>
<path fill-rule="evenodd" clip-rule="evenodd" d="M133.721 45.0149L135.189 43.5469L137.695 46.0529L144.92 38.8279L146.387 40.2969L137.696 48.9889L133.721 45.0149Z" fill="#A23293"/>
<g filter="url(#filter1_d)">
<path fill-rule="evenodd" clip-rule="evenodd" d="M102.721 40.8279V60.5888C102.721 63.6549 104.399 66.4752 107.108 67.9889L135.4 83.811C138.082 85.3117 141.359 85.3117 144.042 83.811L172.334 68.0018C175.042 66.4882 176.721 63.6549 176.721 60.6018V40.8279H261.721C263.93 40.8279 265.721 42.6187 265.721 44.8279V621.191C265.721 623.401 263.93 625.191 261.721 625.191H16.7207C14.5116 625.191 12.7207 623.401 12.7207 621.191V44.8279C12.7207 42.6187 14.5116 40.8279 16.7207 40.8279H102.721Z" fill="white"/>
</g>
<defs>
<filter id="filter0_d" x="90.7207" y="0.827881" width="98" height="104" filterUnits="userSpaceOnUse" color-interpolation-filters="sRGB">
<feFlood flood-opacity="0" result="BackgroundImageFix"/>
<feColorMatrix in="SourceAlpha" type="matrix" values="0 0 0 0 0 0 0 0 0 0 0 0 0 0 0 0 0 0 127 0"/>
<feOffset dy="8"/>
<feGaussianBlur stdDeviation="10"/>
<feColorMatrix type="matrix" values="0 0 0 0 0 0 0 0 0 0.658824 0 0 0 0 0.556863 0 0 0 0.24 0"/>
<feBlend mode="normal" in2="BackgroundImageFix" result="effect1_dropShadow"/>
<feBlend mode="normal" in="SourceGraphic" in2="effect1_dropShadow" result="shape"/>
</filter>
<filter id="filter1_d" x="0.720703" y="32.8279" width="277" height="608.364" filterUnits="userSpaceOnUse" color-interpolation-filters="sRGB">
<feFlood flood-opacity="0" result="BackgroundImageFix"/>
<feColorMatrix in="SourceAlpha" type="matrix" values="0 0 0 0 0 0 0 0 0 0 0 0 0 0 0 0 0 0 127 0"/>
<feOffset dy="4"/>
<feGaussianBlur stdDeviation="6"/>
<feColorMatrix type="matrix" values="0 0 0 0 0.113725 0 0 0 0 0.113725 0 0 0 0 0.105882 0 0 0 0.12 0"/>
<feBlend mode="normal" in2="BackgroundImageFix" result="effect1_dropShadow"/>
<feBlend mode="normal" in="SourceGraphic" in2="effect1_dropShadow" result="shape"/>
</filter>
</defs>
</svg>
