<svg width="66" height="67" viewBox="0 0 66 67" fill="none" xmlns="http://www.w3.org/2000/svg">
<path fill-rule="evenodd" clip-rule="evenodd" d="M33.2569 54.9207C33.6819 54.7512 34.2283 54.523 34.8615 54.2357C36.4636 53.5088 38.5774 52.4233 40.67 50.9823C45.0063 47.9961 48.4711 44.0461 48.4711 39.1905V21.4305L33.2569 12.6192L18.0428 21.4305V39.1905C18.0428 44.0461 21.5076 47.9961 25.8439 50.9823C27.9365 52.4233 30.0503 53.5088 31.6524 54.2357C32.2856 54.523 32.832 54.7512 33.2569 54.9207ZM15 19.6532L33.2569 9.07959L51.5139 19.6532V39.1905C51.5139 52.0561 33.2569 58.1956 33.2569 58.1956C33.2569 58.1956 15 52.0561 15 39.1905V19.6532Z" fill="#1D1D1B"/>
<path fill-rule="evenodd" clip-rule="evenodd" d="M40.805 29.4042L30.626 39.6732L25 33.9974L27.1463 31.8321L30.626 35.3427L38.6587 27.2389L40.805 29.4042Z" fill="#00A88E"/>
</svg>
