<svg width="66" height="66" viewBox="0 0 66 66" fill="none" xmlns="http://www.w3.org/2000/svg">
<rect width="66" height="66" fill="white"/>
<path d="M56.4568 25.3773C57.0533 24.7158 58.5 23 58.5 23C58.5 23 57.0533 21.2159 56.4568 20.5543C50.7671 14.3035 41.7408 8.20001 33.0005 8.34734C24.2731 8.20001 15.2338 14.3035 9.56147 20.5543C8.96493 21.2159 7.5 23 7.5 23C7.5 23 8.96493 24.7158 9.56147 25.3773C15.1146 31.496 24.1171 37.7403 33.0005 37.5908" stroke="black" stroke-width="3"/>
<path d="M33.0005 31.0952C31.3935 31.0952 29.8226 30.6187 28.4865 29.7259C27.1503 28.8331 26.1089 27.5642 25.494 26.0795C24.879 24.5949 24.7181 22.9612 25.0316 21.3851C25.3451 19.809 26.1189 18.3613 27.2552 17.225C28.3916 16.0887 29.8393 15.3148 31.4154 15.0013C32.9915 14.6878 34.6251 14.8487 36.1098 15.4637C37.5944 16.0787 38.8634 17.1201 39.7562 18.4562C40.649 19.7924 41.1255 21.3632 41.1255 22.9702" stroke="black" stroke-width="3"/>
<path d="M40.3193 35.1577C40.3193 36.6661 40.9186 38.1128 41.9852 39.1794C43.0518 40.246 44.4984 40.8452 46.0068 40.8452C47.5153 40.8452 48.9619 40.246 50.0285 39.1794C51.0951 38.1128 51.6943 36.6661 51.6943 35.1577C51.6943 33.6493 51.0951 32.2027 50.0285 31.136C48.9619 30.0694 47.5153 29.4702 46.0068 29.4702C44.4984 29.4702 43.0518 30.0694 41.9852 31.136C40.9186 32.2027 40.3193 33.6493 40.3193 35.1577V35.1577Z" stroke="#00A88E" stroke-width="3" stroke-linecap="round" stroke-linejoin="round"/>
<path d="M46.0005 42.4702C42.9837 42.4702 40.0904 43.6686 37.9571 45.8019C35.8239 47.9351 34.6255 50.8284 34.6255 53.8452V57.0952H57.3755V53.8452C57.3749 50.8286 56.1763 47.9356 54.0432 45.8025C51.9101 43.6694 49.0172 42.4708 46.0005 42.4702V42.4702Z" stroke="#00A88E" stroke-width="3"/>
</svg>
