<svg width="66" height="66" viewBox="0 0 66 66" fill="none" xmlns="http://www.w3.org/2000/svg">
<rect width="66" height="66" fill="white"/>
<path d="M8.625 33C8.625 39.4647 11.1931 45.6645 15.7643 50.2357C20.3355 54.8069 26.5353 57.375 33 57.375C39.4647 57.375 45.6645 54.8069 50.2357 50.2357C54.8069 45.6645 57.375 39.4647 57.375 33C57.375 26.5353 54.8069 20.3355 50.2357 15.7643C45.6645 11.1931 39.4647 8.625 33 8.625C26.5353 8.625 20.3355 11.1931 15.7643 15.7643C11.1931 20.3355 8.625 26.5353 8.625 33V33Z" stroke="black" stroke-width="3" stroke-linecap="round" stroke-linejoin="round"/>
<path d="M18.375 33C18.375 36.8788 19.9158 40.5987 22.6586 43.3414C25.4013 46.0842 29.1212 47.625 33 47.625C36.8788 47.625 40.5987 46.0842 43.3414 43.3414C46.0842 40.5987 47.625 36.8788 47.625 33C47.625 29.1212 46.0842 25.4013 43.3414 22.6586C40.5987 19.9158 36.8788 18.375 33 18.375C29.1212 18.375 25.4013 19.9158 22.6586 22.6586C19.9158 25.4013 18.375 29.1212 18.375 33V33Z" stroke="black" stroke-width="3" stroke-linecap="round" stroke-linejoin="round"/>
<path d="M28.125 33C28.125 34.2929 28.6386 35.5329 29.5529 36.4471C30.4671 37.3614 31.7071 37.875 33 37.875C34.2929 37.875 35.5329 37.3614 36.4471 36.4471C37.3614 35.5329 37.875 34.2929 37.875 33C37.875 31.7071 37.3614 30.4671 36.4471 29.5529C35.5329 28.6386 34.2929 28.125 33 28.125C31.7071 28.125 30.4671 28.6386 29.5529 29.5529C28.6386 30.4671 28.125 31.7071 28.125 33V33Z" stroke="black" stroke-width="3" stroke-linecap="round" stroke-linejoin="round"/>
<path d="M36.4321 29.5398L50.3898 15.9202" stroke="black" stroke-width="3" stroke-linecap="round" stroke-linejoin="round"/>
<circle cx="35.5" cy="12.5" r="2.5" fill="#00A88E"/>
<circle cx="15.5" cy="23.5" r="2.5" fill="#00A88E"/>
<circle cx="22.5" cy="37.5" r="2.5" fill="#00A88E"/>
<circle cx="50.5" cy="44.5" r="2.5" fill="#00A88E"/>
</svg>
