<svg width="66" height="66" viewBox="0 0 66 66" fill="none" xmlns="http://www.w3.org/2000/svg">
<rect width="66" height="66" fill="white"/>
<path d="M16.75 33C16.75 33 23.25 23.25 33 23.25C42.75 23.25 49.25 33 49.25 33C49.25 33 42.75 42.75 33 42.75C23.25 42.75 16.75 33 16.75 33Z" stroke="#00A88E" stroke-width="3"/>
<path d="M28.9375 28.9375H37.0625V37.0625H28.9375V28.9375Z" stroke="#00A88E" stroke-width="3"/>
<path d="M8.625 16.75V11.875C8.625 11.013 8.625 8.625 8.625 8.625C8.625 8.625 11.013 8.625 11.875 8.625H16.75" stroke="black" stroke-width="3"/>
<path d="M57.375 16.75V11.875C57.375 11.013 57.375 8.625 57.375 8.625C57.375 8.625 54.987 8.625 54.125 8.625H49.25" stroke="black" stroke-width="3"/>
<path d="M8.625 49.25V54.125C8.625 54.987 8.625 57.375 8.625 57.375C8.625 57.375 11.013 57.375 11.875 57.375H16.75" stroke="black" stroke-width="3"/>
<path d="M57.375 49.25V54.125C57.375 54.987 57.375 57.375 57.375 57.375C57.375 57.375 54.987 57.375 54.125 57.375H49.25" stroke="black" stroke-width="3"/>
</svg>
