<svg width="43" height="50" viewBox="0 0 43 50" fill="none" xmlns="http://www.w3.org/2000/svg">
<g clip-path="url(#clip0)">
<path d="M15.9076 32.1455L8.91211 25.1501L10.9985 23.0637L15.9076 27.9728L25.2348 18.6455L27.3212 20.7319L15.9076 32.1455Z" fill="#00A88E"/>
</g>
<path fill-rule="evenodd" clip-rule="evenodd" d="M29.0361 35.7473C29.0361 32.5683 31.5638 30.0405 34.7429 30.0405C37.922 30.0405 40.4497 32.5683 40.4497 35.7473V37.036H42.6588V49.9223H26.9497V37.036H29.0361V35.7473ZM30.0179 40.1042V46.8542H39.5906V40.1042H30.0179ZM37.3815 37.036H32.1042V35.7473C32.1042 34.2628 33.2583 33.1087 34.7429 33.1087C36.2275 33.1087 37.3815 34.2628 37.3815 35.7473V37.036Z" fill="black"/>
<path d="M35.8473 42.2519C35.8473 41.6382 35.3564 41.1473 34.7427 41.1473C34.1291 41.1473 33.6382 41.6382 33.6382 42.2519C33.6382 42.6201 33.7609 42.8655 34.0064 43.111V44.2155C34.0064 44.5837 34.3745 44.9519 34.7427 44.9519C35.1109 44.9519 35.4791 44.5837 35.4791 44.2155V43.111C35.7245 42.8655 35.8473 42.6201 35.8473 42.2519Z" fill="black"/>
<path fill-rule="evenodd" clip-rule="evenodd" d="M36.2329 11.4496L18.1164 0.755859L0 11.4496V30.52C0 37.2714 4.66778 42.1048 8.93854 45.1299C11.1068 46.6657 13.2649 47.8036 14.8757 48.5568C15.6831 48.9344 16.3584 49.2177 16.8356 49.4081C17.0744 49.5033 17.264 49.5754 17.3962 49.6245C17.4624 49.649 17.5142 49.6679 17.5507 49.681L17.5938 49.6963L17.6066 49.7008L17.6121 49.7028L18.1164 49.8779L18.6208 49.7028L18.6222 49.7022L18.6263 49.7008L18.6391 49.6963L18.6822 49.681C18.7187 49.6679 18.7705 49.649 18.8367 49.6245C18.9689 49.5754 19.1585 49.5033 19.3973 49.4081C19.8745 49.2177 20.5498 48.9344 21.3572 48.5568C22.0811 48.2183 22.9155 47.8022 23.8118 47.3071V43.7553C22.4329 44.6059 21.1219 45.2798 20.0576 45.7775C19.3105 46.1268 18.6903 46.3869 18.2607 46.5582C18.2099 46.5784 18.1618 46.5974 18.1164 46.6152C18.0711 46.5974 18.023 46.5784 17.9722 46.5582C17.5426 46.3869 16.9224 46.1268 16.1753 45.7775C14.6768 45.0768 12.6893 44.0268 10.712 42.6262C6.69158 39.7784 3.06818 35.7448 3.06818 30.52V13.2013L18.1164 4.31869L33.1647 13.2013V27.0194C34.204 26.9634 35.1646 26.9879 36.2329 27.1689V11.4496ZM18.1164 48.2539C17.6132 49.7031 17.6121 49.7028 17.6121 49.7028L18.1164 48.2539ZM18.6208 49.7028C18.6208 49.7028 18.6196 49.7031 18.1164 48.2539L18.6208 49.7028Z" fill="#00A88E"/>
<defs>
<clipPath id="clip0">
<rect width="18.4091" height="13.5" fill="white" transform="translate(8.91211 18.6455)"/>
</clipPath>
</defs>
</svg>
