<svg width="54" height="55" viewBox="0 0 54 55" fill="none" xmlns="http://www.w3.org/2000/svg">
<path fill-rule="evenodd" clip-rule="evenodd" d="M26.9995 9.27872C30.2952 9.27872 32.9494 6.6245 32.9494 3.32886H36.0176C36.0176 8.31901 31.9897 12.3469 26.9995 12.3469V9.27872Z" fill="#00A88E"/>
<path fill-rule="evenodd" clip-rule="evenodd" d="M26.9999 12.3367C20.4968 12.3367 15.1697 17.6638 15.1697 24.1669C15.1697 30.6699 20.4968 35.997 26.9999 35.997C33.5029 35.997 38.83 30.6699 38.83 24.1669C38.83 17.5401 33.5129 12.3367 26.9999 12.3367ZM12.1016 24.1669C12.1016 15.9693 18.8023 9.26855 26.9999 9.26855C35.1874 9.26855 41.8982 15.8256 41.8982 24.1669C41.8982 32.3644 35.1974 39.0651 26.9999 39.0651C18.8023 39.0651 12.1016 32.3644 12.1016 24.1669Z" fill="#00A88E"/>
<path fill-rule="evenodd" clip-rule="evenodd" d="M27.0001 39.3323C19.8289 39.3323 14.1009 45.0603 14.1009 52.2316H11.0327C11.0327 43.3658 18.1344 36.2642 27.0001 36.2642C35.8659 36.2642 42.9676 43.3658 42.9676 52.2316H39.8994C39.8994 45.0603 34.1714 39.3323 27.0001 39.3323Z" fill="#00A88E"/>
<path d="M32.3457 26.5723C32.3457 29.5124 29.9401 31.918 27 31.918C24.0599 31.918 21.6543 29.5124 21.6543 26.5723" fill="black"/>
<path d="M21.6544 22.9643C22.8353 22.9643 23.7927 22.007 23.7927 20.826C23.7927 19.6451 22.8353 18.6877 21.6544 18.6877C20.4735 18.6877 19.5161 19.6451 19.5161 20.826C19.5161 22.007 20.4735 22.9643 21.6544 22.9643Z" fill="black"/>
<path d="M32.3458 22.9643C33.5267 22.9643 34.4841 22.007 34.4841 20.826C34.4841 19.6451 33.5267 18.6877 32.3458 18.6877C31.1649 18.6877 30.2075 19.6451 30.2075 20.826C30.2075 22.007 31.1649 22.9643 32.3458 22.9643Z" fill="black"/>
</svg>
