<svg width="1181" height="1165" viewBox="0 0 1181 1165" fill="none" xmlns="http://www.w3.org/2000/svg">
<path d="M1035.71 784.592C1038.2 824.406 1016.9 861.922 981.424 880.174L655.937 1047.65C619.871 1066.2 577.06 1066.19 541.004 1047.61L287.746 917.133C257.91 901.762 234.062 876.867 219.986 846.399L111.097 610.717C90.9856 567.188 101.792 515.533 137.923 484.009L481.5 124.529C518.532 92.219 571.148 85.1562 615.924 105.418L935.234 248.24C977.573 267.399 1005.86 308.379 1008.77 354.759L1035.71 784.592Z" fill="#00A88E" fill-opacity="0.2"/>
<path d="M1035.71 784.592C1038.2 824.406 1016.9 861.922 981.424 880.174L655.937 1047.65C619.871 1066.2 577.06 1066.19 541.004 1047.61L287.746 917.133C257.91 901.762 234.062 876.867 219.986 846.399L111.097 610.717C90.9856 567.188 101.792 515.533 137.923 484.009L481.5 124.529C518.532 92.219 571.148 85.1562 615.924 105.418L935.234 248.24C977.573 267.399 1005.86 308.379 1008.77 354.759L1035.71 784.592Z" fill="url(#paint0_linear)"/>
<path d="M1035.71 784.592C1038.2 824.406 1016.9 861.922 981.424 880.174L655.937 1047.65C619.871 1066.2 577.06 1066.19 541.004 1047.61L287.746 917.133C257.91 901.762 234.062 876.867 219.986 846.399L111.097 610.717C90.9856 567.188 101.792 515.533 137.923 484.009L481.5 124.529C518.532 92.219 571.148 85.1562 615.924 105.418L935.234 248.24C977.573 267.399 1005.86 308.379 1008.77 354.759L1035.71 784.592Z" fill="url(#paint1_linear)"/>
<defs>
<linearGradient id="paint0_linear" x1="1060.49" y1="722.061" x2="75.3496" y2="431.363" gradientUnits="userSpaceOnUse">
<stop stop-color="white"/>
<stop offset="1" stop-color="white" stop-opacity="0"/>
</linearGradient>
<linearGradient id="paint1_linear" x1="1060.49" y1="722.061" x2="75.3496" y2="431.363" gradientUnits="userSpaceOnUse">
<stop stop-color="white"/>
<stop offset="1" stop-color="white" stop-opacity="0"/>
</linearGradient>
</defs>
</svg>
